<?xml version="1.0" encoding="UTF-8" standalone="no"?>
<!-- Created with Inkscape (http://www.inkscape.org/) -->

<svg
   version="1.1"
   id="svg413"
   width="300"
   height="263"
   viewBox="0 0 300 263"
   sodipodi:docname="waffle_sm.svg"
   inkscape:version="1.2.1 (9c6d41e410, 2022-07-14)"
   xmlns:inkscape="http://www.inkscape.org/namespaces/inkscape"
   xmlns:sodipodi="http://sodipodi.sourceforge.net/DTD/sodipodi-0.dtd"
   xmlns:xlink="http://www.w3.org/1999/xlink"
   xmlns="http://www.w3.org/2000/svg"
   xmlns:svg="http://www.w3.org/2000/svg">
  <defs
     id="defs417">
    <linearGradient
       inkscape:collect="always"
       id="linearGradient173737">
      <stop
         style="stop-color:#bb4041;stop-opacity:1;"
         offset="0"
         id="stop173733" />
      <stop
         style="stop-color:#d12a2b;stop-opacity:1;"
         offset="1"
         id="stop173735" />
    </linearGradient>
    <filter
       style="color-interpolation-filters:sRGB"
       id="filter173700"
       inkscape:label="filter0" />
    <radialGradient
       inkscape:collect="always"
       xlink:href="#linearGradient173737"
       id="radialGradient173739"
       cx="198.10733"
       cy="174.9537"
       fx="198.10733"
       fy="174.9537"
       r="95.585466"
       gradientTransform="matrix(1,0,0,0.90190468,0,17.16214)"
       gradientUnits="userSpaceOnUse" />
  </defs>
  <sodipodi:namedview
     id="namedview415"
     pagecolor="#ffffff"
     bordercolor="#666666"
     borderopacity="1.0"
     inkscape:showpageshadow="2"
     inkscape:pageopacity="0.0"
     inkscape:pagecheckerboard="0"
     inkscape:deskcolor="#d1d1d1"
     showgrid="false"
     inkscape:zoom="1.473099"
     inkscape:cx="206.02825"
     inkscape:cy="135.42878"
     inkscape:window-width="1712"
     inkscape:window-height="894"
     inkscape:window-x="0"
     inkscape:window-y="0"
     inkscape:window-maximized="1"
     inkscape:current-layer="layer2" />
  <g
     inkscape:groupmode="layer"
     id="layer2"
     inkscape:label="fill"
     style="display:inline">
    <path
       style="display:inline;fill:#f0ca4f;fill-opacity:0.99607843;stroke:none;stroke-width:1px;stroke-linecap:butt;stroke-linejoin:miter;stroke-opacity:1"
       d="M 10.479221,66.233576 C 30.402311,48.530508 44.303494,34.839629 60.490162,25.080268 84.874328,10.378422 110.56163,3.8112992 139.07447,1.5318381 c 32.00937,-2.5589908 67.07759,3.8266321 101.94868,27.6753939 16.69286,11.416443 32.37512,28.949297 48.20307,49.602132 4.67174,3.931492 9.15279,7.659871 9.37003,11.93895 0.17815,3.508999 -2.76804,7.479785 -8.64894,11.461576 l -4.92078,4.5912 -133.71334,106.12655 c -17.3228,13.38355 -18.50038,11.53837 -31.05397,-1.31772 L 103.74812,197.42514 96.622447,188.74888 79.523976,177.17783 71.517919,163.79469 60.912249,154.34198 50.606995,135.78967 30.400783,119.51528 22.004449,106.27893 11.734525,95.832782 C -1.0256285,85.942933 -2.5877503,77.793361 10.479221,66.233576 Z"
       id="path158418"
       sodipodi:nodetypes="cssscscccccccccccccc"
       inkscape:label="base" />
    <path
       id="rect163429"
       style="fill:#e8a62e;fill-opacity:0.99607843;stroke:none"
       transform="rotate(-44.140263)"
       d="m -40.924221,90.733337 39.1493068,0.692199 c 4.5640322,13.967384 5.5110875,27.636124 0.6089215,42.485104 -13.1147323,0.36878 -26.1800443,0.55851 -38.8888453,-0.54335 z"
       sodipodi:nodetypes="ccccc"
       inkscape:label="hole1" />
    <path
       id="path164940"
       style="fill:#e8a62e;fill-opacity:0.99607843;stroke:none"
       d="m 75.070204,64.221396 c 7.097744,-7.057703 15.872808,-13.920846 23.823411,-20.879622 3.833975,-2.490962 7.919075,-3.248559 12.513325,-0.49169 6.22009,6.88726 7.72056,2.621691 17.58208,17.43901 l -29.308112,27.10571 z"
       sodipodi:nodetypes="cccccc"
       inkscape:label="hole2" />
    <path
       id="path164942"
       style="fill:#e8a62e;fill-opacity:0.99607843;stroke:none"
       d="m 125.93422,40.382053 19.6922,-7.934617 c 10.22584,-0.882615 19.0346,-0.03973 25.44744,3.720518 l -25.97,20.092701 z"
       sodipodi:nodetypes="ccccc"
       inkscape:label="hole3" />
    <path
       id="path169705"
       style="fill:#e8a62e;fill-opacity:0.99607843;stroke:none"
       d="m 66.782868,133.28737 c 5.63722,-13.25711 16.208424,-23.60856 28.531979,-27.68832 13.002443,6.84504 24.656483,14.56543 31.479593,28.63557 -7.98167,11.31955 -11.84492,21.23228 -25.85217,28.61295 -13.186078,-8.05505 -22.817009,-19.66276 -34.159402,-29.5602 z"
       sodipodi:nodetypes="ccccc"
       inkscape:label="hole4" />
    <path
       id="path169707"
       style="fill:#e8a62e;fill-opacity:0.99607843;stroke:none"
       d="m 108.27662,97.751094 c 8.83414,-11.471827 16.69158,-20.813272 26.94374,-28.221821 0.8407,0.374328 3.27558,0.346216 4.12707,1.041574 10.56905,8.631109 23.09166,14.954901 29.43802,28.041929 -0.0191,1.344704 -0.42308,2.342124 -1.55394,3.412034 -8.04667,7.61303 -17.77131,19.38001 -28.88547,26.71191 -10.46233,-10.30632 -22.6877,-20.52345 -30.06942,-30.985626 z"
       sodipodi:nodetypes="ccscscc"
       inkscape:label="hole5" />
    <path
       id="path169709"
       style="fill:#e8a62e;fill-opacity:0.99607843;stroke:none"
       d="m 152.91333,61.815009 c -8.35505,-0.404955 17.84529,-22.133807 30.27842,-28.324417 13.00244,6.84504 22.7115,12.430037 30.60334,28.993871 -8.20335,11.028064 -18.11047,19.797113 -29.94215,30.03838 -15.42897,-8.108248 -26.44812,-16.798708 -30.93961,-30.707834 z"
       sodipodi:nodetypes="ccccc"
       inkscape:label="hole6" />
    <path
       id="path169711"
       style="fill:#e8a62e;fill-opacity:0.99607843;stroke:none"
       d="m 193.45724,97.938548 c -2.38114,0.970384 -1.1786,-4.526614 1.56752,-6.236872 11.31566,-7.04729 17.84984,-17.315348 29.13431,-22.789767 13.00226,6.845192 24.79714,14.671102 32.56711,27.974159 -7.98167,11.319552 -11.75469,24.875592 -25.76194,32.256262 -17.16648,-7.82065 -30.84795,-21.03055 -37.507,-31.203782 z"
       sodipodi:nodetypes="cscccc"
       inkscape:label="hole7" />
    <path
       id="path169713"
       style="fill:#e8a62e;fill-opacity:0.99607843;stroke:none"
       d="m 112.97451,169.94766 c 3.02493,-6.76688 8.86515,-10.39228 19.76481,-23.57403 13.00244,6.84504 29.56075,16.51634 36.38386,30.58648 -7.98167,11.31955 -11.84492,21.23228 -25.85217,28.61295 -9.91726,-6.40583 -23.34638,-21.43186 -31.17864,-26.80966 -4.84017,-3.32336 -0.73577,-9.82524 0.88214,-8.81574 z"
       sodipodi:nodetypes="ccccsc"
       inkscape:label="hole8" />
    <path
       style="fill:url(#radialGradient173739);fill-opacity:1;stroke:none;stroke-width:1px;stroke-linecap:butt;stroke-linejoin:miter;stroke-opacity:1"
       d="m 109.47097,204.08793 c 1.58318,19.61818 -12.940061,45.23331 -4.04433,50.75082 6.19581,8.28108 22.36621,4.08065 35.09324,4.18901 6.39959,0.90314 11.81151,1.57209 16.69427,2.0865 13.248,1.39572 21.63683,-0.0752 26.82446,-2.73325 7.3708,-8.77674 16.32362,-13.49342 34.6492,-24.2278 9.86899,-14.52497 12.26228,-33.54213 30.41694,-37.59884 12.55299,-6.90456 26.44249,-13.20049 30.27427,-24.72694 2.05807,-6.19092 -0.27566,-13.60512 -2.17797,-23.9853 7.31959,-14.02885 28.41867,-31.00968 7.4603,-38.98057 L 238.39062,91.454755 c -9.60796,-5.721813 -18.84444,-1.73206 -27.94163,5.899272 -7.31895,14.781903 -22.69325,14.357293 -37.52723,14.952693 -17.16852,5.40825 -29.5324,14.49951 -40.3262,32.93521 4.75725,7.10572 -6.98769,28.64754 -13.91582,44.142 -1.08654,7.86109 -4.44543,12.33064 -9.20877,14.704 z"
       id="path169715"
       sodipodi:nodetypes="cccscccscccccccc"
       inkscape:label="sirup" />
  </g>
  <g
     inkscape:groupmode="layer"
     inkscape:label="Image"
     id="g419"
     sodipodi:insensitive="true"
     style="display:inline">
    <path
       style="fill:#000000"
       d="m 112.4687,261.00218 c -10.34971,-3.22998 -13.605234,-14.89031 -7.8759,-28.20915 3.32822,-7.73704 4.7492,-22.35348 2.67767,-27.54303 -0.71352,-1.7875 -1.74686,-3.25 -2.29631,-3.25 -0.54945,0 -2.52179,-2.3625 -4.38298,-5.25 -4.480421,-6.95107 -12.955082,-14.41706 -18.953556,-16.69768 -2.55959,-0.97315 -8.729949,-8.77725 -11.928798,-15.0872 -0.985146,-1.94327 -3.981391,-5.41983 -6.658322,-7.72568 -3.299957,-2.84252 -5.433339,-5.7295 -6.62554,-8.96595 -2.206622,-5.99029 -3.488342,-7.41545 -16.58143,-18.43712 -5.861056,-4.93379 -11.196971,-10.27543 -11.857587,-11.8703 -0.660616,-1.59487 -1.873367,-3.45767 -2.695001,-4.13957 -0.821634,-0.68189 -2.964771,-3.53918 -4.762528,-6.34953 -1.797757,-2.81035 -4.724423,-6.20485 -6.503704,-7.543345 C 12.245434,98.595131 8.5948656,95.25 5.9123401,92.5 1.1498999,87.617769 1.0346085,87.354645 1.0175105,81.32878 L 1,75.157561 7.5731012,67.82878 C 15.604604,58.873933 22.302182,52.539041 31.5,45.197569 c 3.85,-3.072976 9.633766,-7.947026 12.852813,-10.831224 7.804151,-6.992353 31.704585,-20.075138 39.208754,-21.462359 3.098816,-0.572847 5.868261,-0.807491 6.154321,-0.521431 0.28606,0.28606 -0.77049,0.774744 -2.347889,1.085964 -6.48403,1.279296 -12.38931,3.726839 -20.198545,8.371627 -9.822665,5.842338 -12.02629,7.73158 -3.857861,3.307474 6.257433,-3.389091 7.146097,-3.697196 6.18678,-2.144987 -0.340814,0.551449 -2.639868,1.922944 -5.10901,3.047768 C 59.369638,28.33715 52,34.553751 52,36.501352 52,37.822963 48.803423,40.234774 43.243573,43.10806 37.46665,46.093527 36.42061,46.057263 39.962226,42.994301 41.86645,41.347435 43.773551,40 44.200228,40 c 0.426677,0 3.468569,-2.717994 6.75976,-6.039988 4.375263,-4.416211 5.154898,-5.558771 2.900023,-4.25 -1.696179,0.984494 -4.496072,3.409122 -6.221986,5.388064 C 45.912111,37.077018 41.9125,40.403229 38.75,42.489656 35.5875,44.576083 33,46.471007 33,46.700597 c 0,0.22959 0.5625,0.09332 1.25,-0.30283 0.6875,-0.396147 0.159059,0.477295 -1.174314,1.940983 -1.333373,1.463687 -2.908373,2.651244 -3.5,2.639014 C 28.984059,50.965534 29.625,50.075541 31,49 32.375,47.924459 33.015941,47.034466 32.424314,47.022236 31.280878,46.9986 27.331725,50.836641 26.810549,52.478055 26.639747,53.015985 25.825,53.544688 25,53.65295 23.431095,53.858833 12.675346,64.961531 5.8246554,73.446837 c -3.3067461,4.095755 -3.8942696,5.472121 -3.4149275,8 0.9790625,5.163227 1.1531642,5.567145 3.3810501,7.844081 1.188821,1.214995 3.3449591,3.473855 4.791418,5.019688 2.610458,2.789801 4.794291,3.052886 2.511746,0.302588 -0.866476,-1.04404 -0.887179,-1.622947 -0.07597,-2.124302 1.496851,-0.925105 2.263095,-0.0091 2.417989,2.890505 0.13886,2.599466 7.303484,11.584893 9.255021,11.607063 2.675217,0.0304 1.998084,-1.8735 -1.9824,-5.57395 C 20.393862,99.260627 19.0625,98.1525 19.75,98.95 c 0.6875,0.7975 1.25,1.83656 1.25,2.30902 0,1.3297 -1.86487,-0.13801 -3.094391,-2.435391 -0.799383,-1.493661 -0.800871,-1.876931 -0.0054,-1.385289 C 18.505104,97.812172 19,97.582997 19,96.929064 19,96.27513 20.982613,97.486073 23.405806,99.620047 28.27769,103.91045 29.50303,108 25.916667,108 c -1.222223,0 -1.911111,0.51667 -1.666667,1.25 0.229167,0.6875 1.054167,1.25 1.833333,1.25 0.779167,0 1.428418,0.45 1.442779,1 0.01436,0.55 0.598349,1.9 1.29775,3 1.19395,1.87782 1.235225,1.84727 0.675626,-0.5 -0.454822,-1.90778 -0.005,-1.56861 1.898944,1.43174 1.372225,2.16246 2.229223,4.36171 1.904441,4.88722 -0.59243,0.95857 0.769961,2.25146 8.197127,7.77897 5.430327,4.04141 15.499328,13.9943 15.502875,15.32411 0.0016,0.59288 1.350288,1.97796 2.997125,3.07796 1.646837,1.1 2.993308,2.675 2.992158,3.5 -0.0013,0.92793 -0.939928,0.35586 -2.461162,-1.5 -1.352489,-1.65 -2.475253,-2.64667 -2.495033,-2.21482 -0.076,1.65927 3.590599,6.4422 9.162347,11.95192 C 70.389239,161.39251 73,164.42465 73,164.97519 73,166.45733 80.279801,177 81.303228,177 c 0.483381,0 3.444952,1.8 6.581267,4 3.136316,2.2 6.132843,4.00129 6.658949,4.00288 0.526106,0.002 1.828857,1.30491 2.895003,2.8963 1.066146,1.59138 2.528646,2.66694 3.250003,2.39013 0.88726,-0.34047 1.31155,0.39153 1.31155,2.26274 0,3.762 8.94233,12.30239 10.31434,9.85074 0.63268,-1.13054 0.007,-2.66405 -2.21634,-5.43047 -1.7039,-2.12027 -3.098,-4.18487 -3.098,-4.588 0,-1.29024 4.94294,3.86053 5.55481,5.78837 0.92024,2.89942 2.10555,1.35793 4.5087,-5.86353 l 2.21934,-6.66912 -2.6279,-2.07002 c -1.44535,-1.13851 -3.74327,-2.97002 -5.1065,-4.07002 -2.59909,-2.09723 -4.56086,-7.5 -2.72328,-7.5 0.57309,0 1.18438,1.21112 1.35841,2.69137 0.23106,1.96531 1.50159,3.38255 4.7096,5.25343 6.08064,3.54618 6.78001,4.9417 5.12021,10.21691 -1.84442,5.86197 -7.19212,14.77493 -8.88583,14.80993 -1.09773,0.0227 -1.12674,0.32443 -0.1449,1.50747 0.93009,1.12069 0.95976,2.2473 0.12245,4.64922 C 110.4973,212.8719 110,217.09405 110,220.51091 c 0,4.77419 -0.69881,7.75364 -3.01842,12.86944 -3.70922,8.18052 -4.20139,15.50889 -1.30233,19.39186 5.03889,6.74904 9.30402,7.68581 26.40387,5.79918 5.55046,-0.61239 8.63303,-0.48293 11.5,0.48296 2.15428,0.72578 8.64188,1.62692 14.41688,2.00252 9.68454,0.62988 9.45156,0.65453 -3,0.31736 -7.425,-0.20106 -15.975,-0.45218 -19,-0.55806 -3.025,-0.10587 -8.875,0.10553 -13,0.46977 -4.125,0.36424 -8.86408,0.23655 -10.5313,-0.28376 z m 62.23476,-0.0517 c 2.31191,-0.45668 5.18933,-1.35796 6.39429,-2.00283 3.78932,-2.02799 10.90596,-9.13267 10.23519,-10.21799 -0.35307,-0.5713 -0.18132,-0.75403 0.38167,-0.40608 0.563,0.34795 2.60722,-0.90533 4.54272,-2.78506 2.18401,-2.12108 5.59232,-4.0204 8.98384,-5.00634 9.88005,-2.87221 18.17638,-12.24484 22.82275,-25.78361 2.58416,-7.5298 4.96968,-10.23451 13.8356,-15.68681 3.34737,-2.05855 5.75186,-4.1012 5.3433,-4.53921 -0.40855,-0.43802 -0.0678,-0.5732 0.75718,-0.3004 3.09013,1.02181 25.55595,-12.08866 28.55307,-16.66284 2.71061,-4.13692 3.52395,-9.52941 2.331,-15.4548 -0.59744,-2.96749 -1.37919,-4.92147 -1.73722,-4.34216 -0.35803,0.5793 -0.77759,-2.05844 -0.93235,-5.86164 l -0.28139,-6.91492 4.5236,-4.83609 c 2.48798,-2.65986 4.19053,-5.20381 3.78344,-5.65324 -0.40708,-0.44943 -0.21608,-0.5172 0.42444,-0.15059 1.42754,0.81705 4.48404,-4.0101 6.88911,-10.88002 1.55281,-4.43547 1.59494,-5.38679 0.35434,-8 -0.82434,-1.73638 -3.10618,-3.79499 -5.50439,-4.96589 -2.26073,-1.10378 -3.90662,-2.55169 -3.67295,-3.23115 0.41667,-1.21159 8.70366,-7.22858 10.06943,-7.311176 C 294.09354,99.879452 298,92.884057 298,90.646145 298,89.217466 294.89332,85.218154 289.25,79.382021 284.4375,74.405098 275.55,64.780804 269.5,57.994702 263.45,51.2086 256.82763,44.443529 254.78362,42.961211 c -2.044,-1.482318 -3.48897,-2.922527 -3.21103,-3.200465 C 252.29407,39.039262 242.49546,30.4083 236,26.043861 c -10.06848,-6.765228 -10.87958,-6.526624 -1.25,0.367717 5.44618,3.899216 7.33042,6.17718 2.5,3.022395 -6.65138,-4.344072 -10.72927,-7.69944 -10.4713,-8.615993 0.15329,-0.544614 -0.63421,-1.22894 -1.75,-1.520725 C 223.10745,18.794837 222.12474,17 223.77091,17 c 2.65289,0 17.53256,10.293294 24.48116,16.935307 4.53636,4.33621 9.37357,8.769338 10.74934,9.851396 1.37578,1.082059 7.45078,7.518381 13.5,14.302938 6.04923,6.784558 14.48609,15.983111 18.74859,20.441229 6.83382,7.147446 7.75,8.546782 7.75,11.83706 0,2.052264 -0.65884,5.005441 -1.46408,6.562614 C 295.86141,100.16869 290.47884,105 288.54572,105 c -0.71546,0 -1.81322,0.61739 -2.43947,1.37197 -0.90325,1.08836 -0.53007,1.62405 1.80526,2.59138 10.41568,4.31431 8.72421,17.45637 -3.94483,30.64986 -6.79937,7.08084 -7.06441,8.30259 -3.95378,18.22588 1.09291,3.48651 1.9871,7.88846 1.9871,9.78212 0,3.90129 -2.24264,9.86603 -4.78814,12.73498 -2.55632,2.88115 -13.3034,9.55254 -25.95671,16.11297 -15.01896,7.78695 -18.67401,11.00682 -20.77753,18.30372 -3.77459,13.09365 -13.81824,24.73068 -23.8653,27.65144 -4.32203,1.25645 -6.53186,2.76977 -11.24568,7.7012 -8.50487,8.8975 -13.56186,11.90041 -19.81242,11.76491 l -5.05422,-0.10956 4.20346,-0.83035 z M 116,254.29056 c -2.8861,-1.0612 -5,-3.62111 -5,-6.05495 0,-2.25446 0.28514,-2.40477 3.5,-1.84502 1.925,0.33518 5.075,0.88364 7,1.21882 1.925,0.33517 3.5,1.04592 3.5,1.57945 0,0.53353 -1.2375,0.72469 -2.75,0.42479 -1.5125,-0.29989 -4.49915,-0.84729 -6.63699,-1.21644 l -3.88699,-0.67119 2.16824,2.16824 c 2.7286,2.7286 7.58603,3.78195 9.62742,2.08774 2.1259,-1.76433 2.93377,-0.5803 0.95451,1.39895 -1.58584,1.58584 -5.49591,2.00545 -8.47619,0.90961 z m 64.75,-25.74264 C 179.7875,227.21464 179,225.78306 179,225.36661 179,223.84467 184.42411,219 186.12807,219 c 0.96464,0 2.06097,-0.49686 2.43628,-1.10413 0.83269,-1.34731 8.36139,-4.85047 10.43565,-4.85579 1.33401,-0.003 -4.07597,3.3697 -12.42756,7.74859 -1.61016,0.84424 -3.70559,2.20114 -4.6565,3.01533 -1.63583,1.40065 -1.6304,1.58612 0.10098,3.44453 1.04965,1.12668 2.34426,1.64628 3.03622,1.21863 0.77011,-0.47596 1.03905,-0.24321 0.74373,0.64364 -0.7624,2.2895 -3.18258,2.01957 -5.04687,-0.56288 z M 200,228 c 0,-0.55 0.47656,-1 1.05902,-1 0.58246,0 0.7809,0.45 0.44098,1 -0.33992,0.55 -0.81648,1 -1.05902,1 C 200.19844,229 200,228.55 200,228 Z m -13.03722,-2.93046 c 0.56823,-1.06175 2.32529,-2.85054 3.90458,-3.97509 3.50827,-2.49811 8.51857,-4.52791 7.63077,-3.09143 -0.33889,0.54834 -1.03961,0.99698 -1.55715,0.99698 -0.95471,0 -3.09856,1.68173 -7.33005,5.75 -2.87114,2.76039 -4.02924,2.90013 -2.64815,0.31954 z M 215,217.30998 c 0,-0.55 0.9,-1.81449 2,-2.80998 1.1,-0.99549 2,-1.35998 2,-0.80998 0,0.55 -0.9,1.81449 -2,2.80998 -1.1,0.99549 -2,1.35998 -2,0.80998 z m -76,-4.41697 c 0,-0.60884 0.60525,-0.87473 1.34501,-0.59086 1.69271,0.64956 9.97102,-2.98179 9.29416,-4.07696 -0.27534,-0.44551 0.37241,-0.87578 1.43945,-0.95616 1.06703,-0.0804 3.31176,-1.12288 4.98829,-2.31668 1.67653,-1.19379 3.28566,-1.93311 3.57585,-1.64292 0.94194,0.94194 -10.80284,9.47259 -13.89234,10.09049 C 141.25871,214.29826 139,214.12865 139,212.89301 Z M 136.5,212 c -0.33992,-0.55 -0.14148,-1 0.44098,-1 0.58246,0 1.05902,0.45 1.05902,1 0,0.55 -0.19844,1 -0.44098,1 -0.24254,0 -0.7191,-0.45 -1.05902,-1 z m 78,-1 c 0.33992,-0.55 0.81648,-1 1.05902,-1 0.24254,0 0.44098,0.45 0.44098,1 0,0.55 -0.47656,1 -1.05902,1 -0.58246,0 -0.7809,-0.45 -0.44098,-1 z M 150,203.11803 c 0,-0.55 0.45,-1.27811 1,-1.61803 0.55,-0.33992 1,-0.16803 1,0.38197 0,0.55 -0.45,1.27811 -1,1.61803 -0.55,0.33992 -1,0.16803 -1,-0.38197 z m -41.33333,-12.7847 C 108.3,189.96667 108,189.20167 108,188.63333 c 0,-0.6266 0.46577,-0.56756 1.18333,0.15 0.65084,0.65084 0.95084,1.41584 0.66667,1.7 -0.28417,0.28417 -0.81667,0.21667 -1.18333,-0.15 z m -5.06399,-3.8331 c -1.04353,-0.78989 -2.28103,-1.19902 -2.75,-0.90918 -1.066858,0.65935 -1.082202,-0.68132 -0.0268,-2.34352 0.58048,-0.91424 1.57203,-0.44166 3.67177,1.75 2.97761,3.10795 2.43326,4.02196 -0.89495,1.5027 z M 97.19501,185 c -1.113463,-2.66791 -2.351778,-4.4272 -11.602746,-16.48416 -3.249255,-4.23482 -6.445018,-7.90584 -7.101695,-8.15783 -0.656677,-0.25199 -4.239648,-4.47885 -7.962158,-9.39301 -3.722509,-4.91416 -7.233775,-8.64709 -7.802813,-8.29541 -0.617339,0.38154 -0.731132,0.14838 -0.282145,-0.57809 0.413858,-0.66964 0.110688,-1.97667 -0.673711,-2.90451 C 60.12026,137.23586 55.900296,130 56.411881,130 c 0.292474,0 11.979314,15.02074 16.548774,21.26963 0.803361,1.09862 3.278361,3.82978 5.5,6.06923 2.22164,2.23946 4.502635,4.99186 5.068878,6.11644 0.566243,1.12459 1.662638,2.0447 2.436432,2.0447 0.773795,0 1.763166,1.35 2.198603,3 0.435436,1.65 2.415182,4.8 4.399436,7 4.212672,4.67071 6.741312,9.14335 6.115929,10.81779 C 98.437087,186.96801 97.768871,186.375 97.19501,185 Z M 257.75,183.30781 c -0.9625,-0.24995 -1.74693,-0.98396 -1.74317,-1.63113 0.009,-1.4772 6.07583,-5.67668 8.20146,-5.67668 0.87149,0 2.98114,-1.59066 4.68812,-3.5348 1.70697,-1.94413 3.10359,-3.15018 3.10359,-2.6801 0,1.70124 -5.65742,7.13663 -10.02878,9.63518 -2.45917,1.40559 -3.84934,2.56105 -3.08925,2.56767 4.3,0.0375 16.11803,-11.6934 16.11803,-15.99918 0,-1.88783 -0.23598,-2.03781 -1.52417,-0.96871 -1.99738,1.65768 -3.28639,0.34296 -1.41631,-1.44457 0.99347,-0.94961 2.1387,-1.10738 3.69048,-0.50841 2.52779,0.9757 2.68326,1.66316 1.2366,5.46816 C 275.48611,172.48184 265.56433,183 263.34201,183 c -0.64814,0 -1.77774,0.17151 -2.51022,0.38114 -0.73249,0.20962 -2.11929,0.17663 -3.08179,-0.0733 z m -135.13451,-4.48422 c 0.78498,-5.12167 2.25847,-8.09001 6.36564,-12.82359 1.89251,-2.18116 2.76986,-2.74637 2.32834,-1.5 -0.38967,1.1 -1.49628,2.84827 -2.45912,3.88504 -2.50494,2.69727 -4.85035,7.99562 -4.85035,10.95707 0,1.39692 -0.46061,2.82453 -1.02359,3.17247 -0.67463,0.41694 -0.79767,-0.84136 -0.36092,-3.69099 z m -3.96995,1.70798 c -1.01995,-0.77265 -1.67447,-1.94479 -1.45448,-2.60475 0.22942,-0.68826 1.13662,-0.0757 2.12751,1.43663 1.96762,3.00297 1.90123,3.11822 -0.67303,1.16812 z M 89.872445,178.25 c -1.243871,-1.58606 -1.208501,-1.62143 0.377555,-0.37756 0.9625,0.75485 1.75,1.54235 1.75,1.75 0,0.82304 -0.821186,0.29331 -2.127555,-1.37244 z M 104.5,175 c 0.33992,-0.55 0.81648,-1 1.05902,-1 0.24254,0 0.44098,0.45 0.44098,1 0,0.55 -0.47656,1 -1.05902,1 -0.58246,0 -0.7809,-0.45 -0.44098,-1 z m 14.5,-1.38499 c 0,-0.21174 1.2375,-1.18141 2.75,-2.1548 l 2.75,-1.76981 -1.90499,2.1548 C 120.90926,173.75202 119,174.69194 119,173.61501 Z M 117.776,168.5 c 3.01622,-4.01674 7.224,-8.26222 7.224,-7.28873 0,0.28668 -2.30122,2.94393 -5.11382,5.90499 -4.03824,4.25138 -4.48207,4.54242 -2.11018,1.38374 z m -1.32894,-4.90435 c 4.44576,-4.96735 6.20328,-7.59735 5.3399,-7.99077 -0.70783,-0.32253 -0.33375,-0.35407 0.83128,-0.0701 2.28351,0.55662 5.64756,-3.27385 5.03438,-5.7324 -0.17866,-0.71632 -0.13304,-0.95576 0.10138,-0.53209 0.60222,1.08844 3.50036,-3.0007 5.70875,-8.0548 1.2047,-2.75707 5.50363,-7.78227 12.05865,-14.09589 13.15397,-12.66955 19.81585,-15.76235 36.96241,-17.1599 6.23988,-0.50859 12.47939,-1.44146 13.86559,-2.07306 l 2.52037,-1.14835 -3.93489,-5.32646 c -5.15642,-6.979982 -5.00503,-8.078892 0.31944,-2.318856 2.33512,2.526146 5.03318,4.874526 5.99568,5.218616 2.77709,0.9928 2.06123,2.48896 -2.24104,4.68382 -2.92657,1.49302 -7.12736,2.25467 -15.75,2.85565 -10.69166,0.74518 -12.48139,1.16534 -19.71826,4.62912 -6.14486,2.94111 -9.82536,5.65724 -16.14503,11.91468 -11.25848,11.14762 -13.3713,14.51281 -13.49535,21.49467 -0.0548,3.08575 -0.47758,6.73545 -0.93945,8.11045 -0.53144,1.58212 -0.631,0.2053 -0.27115,-3.75 0.63141,-6.94023 -0.44812,-8.06504 -2.87922,-3 -1.52168,3.17032 -10.97304,14.50365 -15.01099,18 -1.11159,0.9625 -2.68668,1.75 -3.50019,1.75 -0.842,0 1.37536,-3.18937 5.14774,-7.40435 z M 94.638374,168.5 C 94.954956,167.675 95.390833,167 95.606989,167 95.823145,167 96,167.675 96,168.5 c 0,0.825 -0.435877,1.5 -0.968615,1.5 -0.532739,0 -0.709594,-0.675 -0.393011,-1.5 z m 4.021135,0.24191 c 0.281969,-0.45624 -0.07495,-1.59731 -0.793158,-2.53571 -0.718206,-0.93841 -0.08195,-0.61526 1.41391,0.71811 1.495859,1.33338 2.719739,2.47445 2.719739,2.53572 0,0.0613 -0.86696,0.1114 -1.92658,0.1114 -1.059621,0 -1.69588,-0.37329 -1.413911,-0.82952 z m -24.482087,-3.82942 c -0.723799,-1.15899 -1.123944,-2.2993 -0.889211,-2.53403 0.693768,-0.69377 2.932118,2.46055 2.55304,3.59779 -0.191307,0.57392 -0.94003,0.0952 -1.663829,-1.06376 z M 202,166 c 1.93876,-1.25292 3,-1.25292 3,0 0,0.55 -1.0125,0.99311 -2.25,0.98469 C 200.93056,166.9723 200.78704,166.78387 202,166 Z M 87.5,164 c -0.339919,-0.55 -0.168034,-1 0.381966,-1 0.55,0 1.278115,0.45 1.618034,1 0.339919,0.55 0.168034,1 -0.381966,1 -0.55,0 -1.278115,-0.45 -1.618034,-1 z m 1.884859,-2.23172 c -1.586673,-1.22745 -3.034859,-2.57745 -3.218192,-3 C 85.983333,158.34573 85.405001,158 84.881483,158 c -0.549932,0 -0.480534,0.88066 0.164354,2.08565 0.613912,1.1471 0.891204,2.31064 0.616204,2.58564 -0.275,0.275 -1.028148,-0.48685 -1.673661,-1.693 -2.595968,-4.85061 3.611748,-4.26085 7.352617,0.69854 2.194189,2.9089 1.714838,2.93131 -1.956138,0.0915 z m 5.85618,-0.17149 c -1.792429,-1.26783 -8.410398,-7.49012 -14.706598,-13.82732 -6.2962,-6.3372 -12.142168,-11.7887 -12.991039,-12.11444 C 65.85971,135.00894 65.33542,129 66.962739,129 c 0.529506,0 2.737194,-2.613 4.905973,-5.80667 2.168778,-3.19367 5.557471,-6.90617 7.530428,-8.25 1.972957,-1.34383 3.590269,-2.71512 3.594027,-3.04731 0.0086,-0.76211 3.652657,-4.56623 7.810611,-8.15373 C 92.5617,102.22554 94,101.38294 94,101.86984 c 0,0.4869 -0.6963,1.46315 -1.547334,2.16944 -1.235897,1.02571 -1.286215,1.44982 -0.25,2.10714 0.999541,0.63405 0.939414,0.82647 -0.261941,0.83827 -0.857601,0.008 -3.669761,2.45988 -6.249244,5.44768 -2.579483,2.98781 -5.47781,5.68968 -6.440725,6.00416 C 77.278606,119.08062 69.511804,130 71.025822,130 71.56162,130 72,130.675 72,131.5 c 0,0.825 -0.675,1.5 -1.5,1.5 -0.825,0 -1.506891,-0.7875 -1.515313,-1.75 -0.01281,-1.46388 -0.166951,-1.51024 -0.942797,-0.28354 -1.122398,1.77464 0.679979,4.35425 2.542854,3.63939 0.695374,-0.26684 2.054537,0.72519 3.020362,2.2045 2.562342,3.92461 21.415641,22.11532 24.699966,23.83188 2.756398,1.44065 2.925578,1.35925 9.749998,-4.69106 3.81971,-3.38642 6.94493,-6.48181 6.94493,-6.87864 0,-0.39682 2.475,-3.57946 5.5,-7.07253 3.025,-3.49307 5.48681,-7.28455 5.47069,-8.42552 -0.0278,-1.96751 -3.91566,-6.90884 -7.13984,-9.07448 -5.67483,-3.81171 -11.68244,-8.37709 -13.81706,-10.50003 -1.38258,-1.37502 -3.78613,-3.15721 -5.341219,-3.96042 -2.857248,-1.47579 -5.295182,-4.75027 -4.287177,-5.75828 0.301089,-0.30109 2.117073,0.74995 4.035521,2.33565 1.918445,1.58569 5.805715,4.68308 8.638365,6.88308 2.83266,2.2 6.62504,5.2375 8.42752,6.75 1.80248,1.5125 3.69205,2.75 4.19905,2.75 0.507,0 2.36009,1.48392 4.11798,3.29761 2.44975,2.52749 3.19617,4.18048 3.19617,7.07808 0,4.14219 -3.44638,8.7147 -17.57258,23.31458 -7.85807,8.12156 -9.76842,8.73877 -15.186381,4.90652 z M 75,161 c -0.901292,-0.58246 -1.024633,-0.97549 -0.309017,-0.98469 0.655041,-0.008 1.469098,0.43469 1.809017,0.98469 0.767305,1.24153 0.421123,1.24153 -1.5,0 z m 52.27953,-3.57283 c 0.87373,-1.69006 2.36281,-3.71506 3.30906,-4.5 1.61875,-1.34279 1.62655,-1.2455 0.13188,1.64566 -0.87373,1.69006 -2.36281,3.71506 -3.30906,4.5 -1.61875,1.34279 -1.62655,1.2455 -0.13188,-1.64566 z m -23.72986,-0.69206 c 1.07268,-1.46974 2.40033,-2.69329 2.95033,-2.719 0.55,-0.0257 0.325,-0.48295 -0.5,-1.01611 -1.29269,-0.8354 -1.26629,-0.97149 0.19098,-0.98469 3.15343,-0.0285 2.80291,1.75197 -0.90105,4.57712 l -3.69059,2.81495 z m -39.090789,-1.80164 c -1.07627,-1.74144 0.149522,-2.11024 1.521063,-0.45764 0.788749,0.95039 0.864611,1.52417 0.201518,1.52417 -0.584886,0 -1.360047,-0.47994 -1.722581,-1.06653 z m 4.83932,-2.1593 c -2.268219,-2.92875 -2.407934,-4.11645 -0.24138,-2.05195 1.282637,1.22222 2.083693,2.4706 1.780124,2.77417 -0.303569,0.30357 -0.996004,-0.0214 -1.538744,-0.72222 z M 117.5,153 c 0.33992,-0.55 1.06803,-1 1.61803,-1 0.55,0 0.72189,0.45 0.38197,1 -0.33992,0.55 -1.06803,1 -1.61803,1 -0.55,0 -0.72189,-0.45 -0.38197,-1 z m 102.20969,-3.14759 C 225.75217,143.24035 228.36873,141 230.04865,141 c 0.863,0 2.4426,-0.66069 3.51022,-1.4682 2.91445,-2.20437 4.30042,-1.76458 1.58035,0.50147 -1.29844,1.0817 -3.16105,1.96673 -4.13914,1.96673 -0.97809,0 -4.39002,2.7 -7.58205,6 -6.52697,6.74774 -9.57201,8.26881 -3.70834,1.85241 z M 111,150.36252 c 0,-1.02277 6.22636,-8.46949 6.6921,-8.00375 0.65176,0.65176 -3.96056,7.50645 -5.4421,8.08789 -0.6875,0.26981 -1.25,0.23195 -1.25,-0.0841 z m -6.11478,-4.88659 C 102.36462,142.74214 92.558567,136 91.103027,136 c -0.471976,0 -1.398612,-0.65123 -2.059192,-1.44718 -0.840886,-1.01321 0.297628,-0.81401 3.796596,0.66426 5.001258,2.11297 16.094029,11.18179 15.006969,12.26885 -0.31732,0.31733 -1.6503,-0.58718 -2.96218,-2.01 z M 121.5,138 c 0.33992,-0.55 0.81648,-1 1.05902,-1 0.24254,0 0.44098,0.45 0.44098,1 0,0.55 -0.47656,1 -1.05902,1 -0.58246,0 -0.7809,-0.45 -0.44098,-1 z M 231,134.03518 c 0,-0.53065 1.0125,-1.49612 2.25,-2.14551 2.23794,-1.17436 2.23979,-1.16919 0.34501,0.96482 C 231.47868,135.23803 231,135.45582 231,134.03518 Z M 86,131.22517 C 86,130.26233 96.581867,119 97.486536,119 c 0.768657,0 -1.951752,3.55878 -6.947078,9.088 C 87.013794,131.99049 86,132.69112 86,131.22517 Z M 120.5,129 c -0.33992,-0.55 -0.16803,-1 0.38197,-1 0.55,0 1.27811,0.45 1.61803,1 0.33992,0.55 0.16803,1 -0.38197,1 -0.55,0 -1.27811,-0.45 -1.61803,-1 z m 13.34461,-2.56658 c -2.38953,-1.96161 -7.57714,-6.79911 -11.52802,-10.75 -3.95087,-3.95088 -8.56337,-8.39222 -10.25,-9.86965 C 109.92085,103.93418 109,102.22527 109,100.12279 c 0,-1.652615 -0.45,-3.282871 -1,-3.62279 -0.55,-0.339919 -1,-0.114919 -1,0.5 0,0.614919 -0.45,0.839919 -1,0.5 -1.83947,-1.136857 -1.02671,-2.32682 1.4068,-2.059688 1.70655,0.187332 2.71863,-0.420181 3.47856,-2.088056 C 111.74756,91.459943 111.66802,91 110.47856,91 109.66535,91 109,90.55 109,90 c 0,-1.368825 3.74294,-1.271179 4.20322,0.109653 0.22129,0.66387 0.9578,0.385888 1.83333,-0.691958 0.88164,-1.085358 0.9665,-1.503052 0.21345,-1.050636 -1.49995,0.901139 -1.54087,0.528175 -0.30009,-2.735322 0.67446,-1.773942 0.60196,-2.639885 -0.25,-2.986152 -0.65995,-0.26823 -0.41241,-0.523217 0.55009,-0.566638 0.9625,-0.04342 1.75,-0.559271 1.75,-1.146335 0,-0.645177 -0.89,-0.793815 -2.25,-0.375772 -3.04026,0.934529 -3.06674,0.982811 -1.81831,3.315526 0.89721,1.67645 0.7439,2.230886 -0.85324,3.085647 -2.89591,1.549846 -3.59051,1.265293 -1.78403,-0.730852 1.06116,-1.172564 1.3023,-2.261644 0.71219,-3.216462 -1.97121,-3.189495 3.30441,-5.11562 8.47762,-3.095165 1.93418,0.755417 1.92788,0.810154 -0.25,2.170261 C 118.0054,82.853209 117,84.082374 117,84.817272 c 0,0.734898 1.2037,-0.160848 2.67489,-1.990547 C 128.47738,71.879156 134.72007,67.12001 136.5,70 c 0.33992,0.55 0.0794,1 -0.57898,1 C 132.40089,71 111,95.762868 111,99.835993 c 0,1.172327 1.63514,3.570477 3.67394,5.388287 2.02066,1.80164 7.64231,7.10072 12.49256,11.77572 4.85024,4.675 9.69609,8.89472 10.76855,9.37715 1.5252,0.6861 2.88816,0.0741 6.25744,-2.80992 2.36913,-2.02789 4.30751,-4.1101 4.30751,-4.62715 0,-0.51704 0.38906,-0.88828 0.86457,-0.82497 0.47552,0.0633 4.84893,-3.85079 9.71869,-8.69798 4.86976,-4.8472 9.13865,-8.52856 9.48641,-8.18079 0.90822,0.90822 -3.75723,6.72575 -9.83675,12.26581 -2.8781,2.62272 -8.00647,7.40767 -11.39637,10.63322 -3.38989,3.22555 -6.83482,5.86463 -7.65538,5.86463 -0.82057,0 -3.44702,-1.60496 -5.83656,-3.56658 z M 44.872445,127.25 C 43.628574,125.66394 43.663944,125.62857 45.25,126.87244 46.915748,128.17881 47.445479,129 46.622445,129 c -0.207656,0 -0.995156,-0.7875 -1.75,-1.75 z m 69.515055,-2.34945 c -2.13812,-1.7047 -5.575,-3.96385 -7.6375,-5.02033 -2.0625,-1.05648 -3.75,-2.39438 -3.75,-2.97312 0,-0.57874 1.18569,-0.1196 2.63486,1.02032 1.44917,1.13992 3.36167,2.08876 4.25,2.10854 1.66471,0.0371 5.65964,3.13252 8.01973,6.21404 1.96725,2.5686 0.86829,2.14695 -3.51709,-1.34945 z m -63.823207,0.39258 c -0.542685,-1.4252 -0.427821,-1.54006 0.559795,-0.5598 0.683418,0.67834 0.990671,1.48524 0.682784,1.79313 -0.307887,0.30789 -0.867048,-0.24711 -1.242579,-1.23333 z m 217.888657,-2.139 C 270.62707,120.86936 272.56058,119 272.74963,119 c 0.83977,0 -3.38153,4.79072 -5.69291,6.46085 -1.50687,1.08882 -0.93355,0.14163 1.39623,-2.30672 z M 39.636585,120.91131 c -2.554747,-2.24878 -4.390489,-4.50049 -4.079426,-5.0038 0.311063,-0.50331 1.71895,0.45561 3.128637,2.13093 1.409687,1.67531 2.78392,2.82518 3.053851,2.55525 0.26993,-0.26993 -0.898625,-2.17638 -2.59679,-4.23655 -3.848984,-4.66948 -3.452878,-5.3833 0.788614,-1.42116 1.899111,1.77404 3.076071,3.76157 2.887307,4.8758 -0.175263,1.03453 0.298913,2.6251 1.053725,3.5346 2.347187,2.82818 0.606929,1.82778 -4.235918,-2.43507 z m 95.287725,1.45297 c -2.1633,-2.35194 -2.20013,-2.51932 -0.34207,-1.55459 2.48661,1.29106 5.05665,4.19031 3.71452,4.19031 -0.52147,0 -2.03907,-1.18607 -3.37245,-2.63572 z M 60.5,122.11667 C 57.186381,120.04472 57.052466,119.91602 45.11925,107.33541 33.958009,95.568665 34,95.621368 34,93.379735 34,90.828357 56.385275,68.886692 60.868244,67.04394 c 2.606154,-1.071275 3.737441,-1.119208 5,-0.211851 0.897466,0.644978 2.531756,1.573958 3.631756,2.0644 1.1,0.490442 5.628595,4.516609 10.063544,8.947037 8.853666,8.844638 13.969581,16.896197 13.053901,20.54456 C 91.556506,102.6152 67.868895,124.01374 64.269872,123.99626 63.846442,123.99421 62.15,123.14839 60.5,122.11667 Z m 8,-2.99115 C 74.103797,115.63808 90,99.052494 90,96.69311 90,93.562928 83.775621,84.694523 77.137396,78.366658 71.709868,73.192886 68.294461,71.137531 71.127555,74.75 c 1.241969,1.583631 1.207123,1.620393 -0.366545,0.386693 -0.956444,-0.749819 -1.513653,-1.727909 -1.238242,-2.173533 0.275412,-0.445625 -0.890942,-1.801197 -2.591897,-3.012384 -2.78293,-1.981621 -3.359944,-2.064388 -5.761758,-0.826467 -1.468012,0.75663 -7.884154,6.599857 -14.258094,12.984948 l -11.588981,11.609257 4.487797,5.208971 c 3.358669,3.898395 4.712445,4.877305 5.380679,3.890745 0.695856,-1.02735 0.828515,-0.97828 0.601184,0.22237 -0.355195,1.87596 15.874824,17.96093 18.117578,17.95566 0.874898,-0.002 2.940724,-0.84389 4.590724,-1.87074 z m -3.337032,-1.72393 C 63.973335,116.56834 63,115.39236 63,114.78831 c 0,-0.60406 0.871644,-0.30946 1.936987,0.65466 1.065342,0.96413 2.415342,1.45731 3,1.09597 C 68.521644,116.17761 69,116.33197 69,116.88197 c 0,1.82945 -1.648306,2.05267 -3.837032,0.51962 z M 73,111.5567 C 73,110.1354 76.640384,107 78.2906,107 c 0.465074,0 -0.115696,1.35 -1.2906,3 -2.295498,3.22373 -4,3.88708 -4,1.5567 z m 7.958973,-9.36428 c 1.242565,-1.81916 2.523755,-3.043025 2.847088,-2.719692 0.323333,0.323333 -0.693311,1.811742 -2.25921,3.307572 L 78.699763,105.5 Z M 84.5,94 C 84.160081,93.45 84.358524,93 84.940983,93 85.523442,93 86,93.45 86,94 86,94.55 85.801558,95 85.559017,95 85.316476,95 84.839919,94.55 84.5,94 Z M 78.25,85.01096 C 76.4625,83.9211 75,82.812959 75,82.548424 c 0,-0.264535 1.575,0.448299 3.5,1.584077 1.925,1.135778 3.5,2.245602 3.5,2.466275 0,0.639718 -0.31609,0.50588 -3.75,-1.587816 z m -4.80887,-6.479157 c -1.067622,-0.807508 -1.43373,-1.482508 -0.813575,-1.5 C 73.247711,77.014312 74.315311,77.675 75,78.5 c 1.580792,1.904738 0.934796,1.917918 -1.55887,0.0318 z M 59,73.181462 c 0,-1.208555 1.8972,-2.617596 2.590697,-1.924098 0.251699,0.251699 -0.22824,1.02686 -1.066531,1.72258 C 59.573782,73.768693 59,73.844555 59,73.181462 Z m 39,43.940978 c 0,-0.48265 0.675,-1.43775 1.5,-2.12244 1.62821,-1.35129 1.83174,-1.02807 0.89301,1.41821 C 99.750458,118.09268 98,118.60782 98,117.12244 Z m 26.47647,-4.39541 c -7.97413,-6.87589 -12.30565,-11.68517 -12.05604,-13.385853 0.22218,-1.513831 0.94842,-1.767002 2.85457,-0.995124 0.94972,0.384579 0.9441,0.513793 -0.025,0.575 -0.6875,0.04342 -1.25,0.555505 -1.25,1.137967 0,0.58246 0.44485,0.78408 0.98855,0.44806 0.5437,-0.33603 0.76304,-0.0233 0.48742,0.69494 -0.43979,1.14608 5.73806,7.36711 13.52403,13.61855 1.375,1.104 2.26441,2.24409 1.97647,2.53354 -0.28793,0.28945 -3.21293,-1.79274 -6.5,-4.62708 z M 150,114.06889 C 150,112.90987 154.00218,109 155.18856,109 c 1.6777,0 0.70985,1.69899 -2.18856,3.84188 -1.65,1.2199 -3,1.77205 -3,1.22701 z M 156,107 c 0,-0.55 0.45,-1 1,-1 0.55,0 1,0.45 1,1 0,0.55 -0.45,1 -1,1 -0.55,0 -1,-0.45 -1,-1 z m 114.05259,-2.65453 c -1.82979,-2.10444 -2.06392,-3.02519 -1.23297,-4.848924 0.73141,-1.60528 0.68925,-2.615422 -0.14695,-3.520581 -0.90346,-0.977964 -0.88571,-1.107361 0.0773,-0.563652 1.78409,1.007258 1.59921,-2.37252 -0.23678,-4.328425 -0.8177,-0.871139 -3.32592,-3.833888 -5.5738,-6.583888 -2.24788,-2.75 -5.74133,-6.936173 -7.76322,-9.302607 -2.02189,-2.366433 -4.08244,-5.178933 -4.57898,-6.25 C 250.10064,67.876327 249.30557,67 248.83036,67 c -1.77645,0 -9.82797,-9.428208 -9.76007,-11.428901 0.0589,-1.734693 0.18069,-1.797228 0.75,-0.384996 0.37384,0.927357 3.37971,4.556167 6.67971,8.064023 12.77733,13.582135 24.99364,28.018101 24.85749,29.374015 -0.11204,1.115916 1.20346,1.361188 6.15487,1.147559 3.46355,-0.149435 6.08862,0.0658 5.83349,0.4783 -0.25514,0.4125 -2.30969,0.75 -4.56567,0.75 -3.33537,0 -4.62503,0.586072 -6.90215,3.13662 l -2.80038,3.13662 2.21118,1.7233 c 1.21614,0.94781 3.65832,1.93114 5.42706,2.18518 2.71611,0.3901 3.94746,-0.20977 7.92323,-3.85992 C 289.8524,96.53549 290,96.451966 290,98.288238 c 0,0.70853 -1.9125,2.867312 -4.25,4.797292 -3.35895,2.77336 -5.21325,3.5456 -8.84437,3.68335 -3.82116,0.14497 -4.97448,-0.26287 -6.85304,-2.42341 z M 121,103 c 0,-0.55 0.47656,-1 1.05902,-1 0.58246,0 0.7809,0.45 0.44098,1 -0.33992,0.55 -0.81648,1 -1.05902,1 C 121.19844,104 121,103.55 121,103 Z M 96.012045,100.97749 C 97.252635,98.65943 98,98.439695 98,100.39301 c 0,0.76616 -0.685413,1.65603 -1.523139,1.9775 -1.242658,0.47685 -1.328252,0.22033 -0.464816,-1.39302 z m 44.495035,1.03396 c -0.35034,-0.56686 0.0511,-0.7345 0.94098,-0.39301 1.73242,0.66479 2.04939,1.38156 0.61096,1.38156 -0.51754,0 -1.21592,-0.44485 -1.55194,-0.98855 z M 259.5,101.18495 c -3.29475,-1.03346 -4.3179,-1.68562 -3,-1.912207 2.4179,-0.415712 10.25301,2.155367 8.93346,2.931497 -0.5134,0.30198 -3.18346,-0.1567 -5.93346,-1.01929 z M 166.95709,97.537435 C 164.59929,93.683446 156.85542,86.035133 147.17555,78 c -4.96936,-4.125 -9.06678,-7.8375 -9.10537,-8.25 -0.0386,-0.4125 0.78472,-0.75 1.8296,-0.75 1.04489,0 4.724,2.925 8.17582,6.5 3.45181,3.575 6.72251,6.5 7.26821,6.5 1.60315,0 12.64765,12.287636 13.29961,14.79657 0.83509,3.2137 0.0402,3.56294 -1.68633,0.740865 z M 209.5,97 c 0.33992,-0.55 0.81648,-1 1.05902,-1 0.24254,0 0.44098,0.45 0.44098,1 0,0.55 -0.47656,1 -1.05902,1 -0.58246,0 -0.7809,-0.45 -0.44098,-1 z m 45.22411,0.346351 c 0.91628,-0.37109 0.81935,-1.113483 -0.38546,-2.952261 -1.937,-2.956229 -0.93273,-4.560657 1.13988,-1.821089 2.02704,2.679332 1.90888,5.444476 -0.22853,5.348052 -1.00164,-0.04519 -1.22653,-0.290948 -0.52589,-0.574702 z M 260.25,94.847506 C 257.9125,93.208671 256,91.204808 256,90.394477 c 0,-1.097983 0.31845,-1.193418 1.25,-0.374607 0.6875,0.604298 2.7125,1.965426 4.5,3.024728 1.7875,1.059303 3.25,2.607619 3.25,3.440704 0,1.835028 0.40013,1.972994 -4.75,-1.637796 z M 19,91.917971 C 19,88.501842 25.350967,79 27.634284,79 28.307105,79 30.527582,77.425 32.568677,75.5 35.735797,72.513021 38,71.178712 38,72.299287 c 0,0.164608 -3.148995,2.922367 -6.997767,6.128354 -7.485271,6.235152 -11.385623,11.409687 -10.445939,13.858464 0.319029,0.831376 0.09937,1.808669 -0.48812,2.171761 C 19.395608,94.873535 19,93.93286 19,91.917971 Z m 84.0364,1.887195 C 103.88142,93.087325 104.43361,91.825 104.26348,91 c -0.17012,-0.825 0.7135,-2.115425 1.9636,-2.867611 1.76567,-1.062401 1.99396,-1.07356 1.02292,-0.05 -0.6875,0.724686 -1.25,2.111778 -1.25,3.082427 0,0.970649 -1.0125,2.255474 -2.25,2.855166 -1.89598,0.918791 -2.00826,0.884992 -0.7136,-0.214816 z m 4.30868,-1.348294 c -0.90001,-2.345377 0.0715,-2.620767 1.45125,-0.411394 C 109.56889,93.282551 109.63525,94 108.97709,94 c -0.57192,0 -1.30633,-0.694408 -1.63201,-1.543128 z m 86.08551,-0.380179 c 0.95732,-1.057819 3.54418,-3.173211 5.7486,-4.700871 2.20441,-1.527661 5.61072,-4.245579 7.56958,-6.039818 1.95885,-1.794238 3.82922,-3.09793 4.15639,-2.897091 0.32716,0.200838 1.71984,-1.157219 3.09484,-3.017904 2.50704,-3.392594 9.07398,-7.444924 11.30764,-6.977722 2.54653,0.532646 6.52961,2.484362 7.1636,3.510181 0.36604,0.592259 2.19065,1.714074 4.0547,2.492922 3.57356,1.49313 11.4722,8.813095 13.40325,12.421301 2.0613,3.851568 -0.70175,2.275967 -3.95646,-2.256132 -1.85143,-2.578067 -4.81591,-5.138968 -7.18606,-6.207755 -2.21898,-1.000623 -5.61562,-3.075824 -7.5481,-4.611559 -5.12797,-4.075203 -10.18498,-3.871075 -13.91577,0.561715 -1.55254,1.844678 -4.16703,4.207178 -5.80997,5.25 -1.64295,1.042822 -4.73471,3.58354 -6.87058,5.64604 -2.13588,2.0625 -4.42571,3.75 -5.08852,3.75 -0.66281,0 -2.26198,1.125 -3.55373,2.5 -2.72551,2.901173 -5.16945,3.449705 -2.56941,0.576693 z m 23.68455,0.08335 c 2.64018,-2.036933 8.9397,-4.438537 9.68571,-3.692535 0.26209,0.262092 -0.82338,0.966704 -2.41216,1.565806 -1.58878,0.599101 -4.19533,1.736691 -5.79233,2.527978 -3.90086,1.932808 -4.34912,1.811377 -1.48122,-0.401249 z M 178.72713,91 c -1.39842,-1.1 -2.95427,-2 -3.45745,-2 C 173.80372,89 159,74.816041 159,73.411445 159,72.710054 157.65,71.174904 156,70 c -1.89031,-1.346022 -3,-3.013909 -3,-4.509077 0,-1.305089 -0.45,-2.651004 -1,-2.990923 -2.11207,-1.305334 -0.80541,-4.254195 4.3303,-9.772553 C 159.26196,49.577351 161.92982,47 162.25888,47 c 0.32906,0 2.76793,-2.079927 5.41971,-4.622059 9.095,-8.718947 16.83055,-12.599218 18.79161,-9.426162 0.32352,0.523478 4.96258,4.235978 10.30901,8.25 12.23363,9.184824 18.18117,15.388369 18.20385,18.987401 0.0198,3.138483 -3.91157,7.945322 -16.68605,20.401969 C 191.09503,87.613943 183.88012,93 181.6747,93 c -0.22274,0 -1.54915,-0.9 -2.94757,-2 z M 196.38039,79.242276 C 211.2634,64.819507 213.0202,62.711743 212.49483,59.908555 212.24655,58.58385 209.1736,54.8 205.66603,51.5 c -5.37278,-5.05485 -9.45847,-8.316781 -21.23527,-16.953821 -1.89443,-1.38936 -5.79321,0.955277 -13.39657,8.056391 -3.5938,3.356414 -6.99289,6.281414 -7.55352,6.5 -0.56063,0.218587 -3.11316,2.656713 -5.67229,5.418059 -4.6215,4.986678 -4.64545,5.048774 -3.54204,9.182696 0.6793,2.545029 1.80999,4.344878 2.91025,4.632603 0.98963,0.258794 2.20349,1.53355 2.69746,2.83279 1.12194,2.950933 14.53965,16.127957 16.75338,16.452864 0.89868,0.131898 2.13765,0.750902 2.75327,1.375564 2.49103,2.527631 6.9882,-0.05296 16.99969,-9.75487 z m -18.92584,6.303179 C 175.32029,83.411197 174.22051,81 175.38131,81 c 0.20972,0 1.58262,1.575 3.05089,3.5 3.09295,4.055059 2.58023,4.603335 -0.97765,1.045455 z M 189,83.622445 c 0,-0.207656 0.7875,-0.995156 1.75,-1.75 1.58606,-1.243871 1.62143,-1.208501 0.37756,0.377555 C 189.82119,83.915748 189,84.445479 189,83.622445 Z m 4,-4.377556 c 0,-0.55 0.675,-1.5602 1.5,-2.244889 0.83674,-0.694433 1.5,-0.802716 1.5,-0.244889 0,0.55 -0.675,1.5602 -1.5,2.244889 -0.83674,0.694433 -1.5,0.802716 -1.5,0.244889 z M 171.5,44 c 0.33992,-0.55 0.81648,-1 1.05902,-1 0.24254,0 0.44098,0.45 0.44098,1 0,0.55 -0.47656,1 -1.05902,1 -0.58246,0 -0.7809,-0.45 -0.44098,-1 z m 64.25,47.283746 C 234.2375,91.054621 233,90.256535 233,89.510222 c 0,-1.11154 0.54253,-1.086283 3,0.139665 1.65,0.823128 3,1.688638 3,1.923355 0,0.234717 -0.1125,0.359334 -0.25,0.276926 -0.1375,-0.08241 -1.4875,-0.337298 -3,-0.566422 z M 9.5,89.792183 C 7.4021334,88.589058 4.9288979,85.737769 5.4934572,85.173209 6.2327996,84.433867 10.889907,84.343518 10.702421,85.072154 10.59109,85.504829 11.4,86.5725 12.5,87.444757 c 1.925008,1.526454 1.887512,1.565734 -1,1.047581 -2.634421,-0.472737 -2.7258157,-0.417603 -0.75,0.452438 1.2375,0.544926 2.25,1.230276 2.25,1.523 0,0.83088 -1.316193,0.57682 -3.5,-0.675593 z m 219.25,-0.454464 c 0.6875,-0.277412 1.8125,-0.277412 2.5,0 0.6875,0.277413 0.125,0.504386 -1.25,0.504386 -1.375,0 -1.9375,-0.226973 -1.25,-0.504386 z M 94.851801,85.242877 C 87.275363,77.469817 83.131305,73.368548 78.636438,69.194944 76.086397,66.827162 74,64.449651 74,63.911584 74,62.805224 91.078547,46 92.2029,46 c 0.400204,0 2.856372,-1.35 5.458152,-3 2.601778,-1.65 6.000688,-3 7.553138,-3 4.20612,0 11.82164,4.422506 15.78581,9.167178 1.925,2.304011 4.7375,5.474462 6.25,7.045445 1.5125,1.570983 2.75,3.277628 2.75,3.792542 0,2.042927 -28.07263,28.9992 -30.188201,28.987712 -0.721489,-0.0039 -2.953489,-1.691418 -4.959998,-3.75 z M 104,82.910321 c 7.01495,-6.128529 23,-22.240773 23,-23.183017 0,-0.532359 -3.6278,-4.513786 -8.06178,-8.847615 -7.47985,-7.310891 -8.36412,-7.879012 -12.25,-7.870305 -5.08764,0.0114 -11.835276,3.755501 -19.68822,10.924517 -3.025,2.761546 -5.785746,5.031142 -6.13499,5.043546 -0.349245,0.0124 -1.394414,1.181581 -2.322599,2.59817 -1.666671,2.543662 -1.640183,2.614928 2.13499,5.744131 4.630124,3.837863 9.57395,8.761711 14.499429,14.440833 2.022256,2.331681 4.047256,4.232231 4.5,4.223446 0.45274,-0.0088 2.39817,-1.391953 4.32317,-3.073706 z m -3.69602,-6.644226 c -1.757804,-2.039069 -2.968345,-3.935063 -2.690088,-4.21332 0.278257,-0.278257 1.941464,1.188775 3.696018,3.260073 l 3.19009,3.765994 7.88738,-7.539421 C 122.91742,61.47392 124.39721,61.853609 114.18243,72 c -4.42966,4.4 -8.64534,7.994036 -9.36818,7.986747 -0.72284,-0.0073 -2.75246,-1.681583 -4.51027,-3.720652 z M 92.5,68 c -1.5808,-1.65 -2.409736,-3 -1.842079,-3 1.02701,0 3.393049,2.366541 4.748992,4.75 C 96.573218,71.800117 95.551385,71.18496 92.5,68 Z m 146,20 c -0.33992,-0.55 -0.16803,-1 0.38197,-1 0.55,0 1.27811,0.45 1.61803,1 0.33992,0.55 0.16803,1 -0.38197,1 -0.55,0 -1.27811,-0.45 -1.61803,-1 z m -18,-1 c 0.33992,-0.55 1.06803,-1 1.61803,-1 0.55,0 0.72189,0.45 0.38197,1 -0.33992,0.55 -1.06803,1 -1.61803,1 -0.55,0 -0.72189,-0.45 -0.38197,-1 z M 11.240547,83.013569 C 9.4833466,80.199844 9.5350353,80.113271 14.25,77.97307 18.802464,75.906631 23.80858,75.184956 21,77 c -0.825,0.533156 -2.2875,0.976265 -3.25,0.984687 -2.439038,0.02134 -5.825759,3.654313 -5.12033,5.492632 0.821286,2.140236 0.08321,1.893835 -1.389123,-0.46375 z M 249.5,84 c -0.33992,-0.55 0.0835,-1 0.94098,-1 0.85746,0 1.55902,0.45 1.55902,1 0,0.55 -0.42344,1 -0.94098,1 -0.51754,0 -1.2191,-0.45 -1.55902,-1 z M 6.1920096,82.13983 C 5.3349048,81.596243 5.1042494,80.308836 5.5228931,78.405143 6.0096846,76.191562 5.9081105,75.857071 5.0961963,77 4.5101324,77.825 4.0237348,78.126123 4.0153128,77.669163 3.9930169,76.459439 22.140099,55.806766 22.717769,56.384435 22.985835,56.652502 19.784001,60.717103 15.602581,65.416883 8.2470618,73.684249 7.3490359,75.513515 7.8297665,81.25 7.997043,83.246085 7.9643302,83.263859 6.1920096,82.13983 Z M 271.56429,80.293128 c -0.54268,-1.425198 -0.42782,-1.540062 0.5598,-0.559795 0.68342,0.678334 0.99067,1.485241 0.68278,1.793128 -0.30789,0.307888 -0.86705,-0.247112 -1.24258,-1.233333 z M 119.18576,77.945072 C 116.5636,76.893424 117.12503,75 120.05902,75 121.33333,75 122,75.686937 122,77 c 0,1.1 -0.1125,1.971476 -0.25,1.936614 -0.1375,-0.03486 -1.29141,-0.481056 -2.56424,-0.991542 z M 243.38373,76.25 C 241.99478,74.7375 240.00019,72.593512 238.9513,71.485582 236.6811,69.087589 235.19155,63 236.875,63 c 0.61875,0 1.125,1.317339 1.125,2.92742 0,1.908017 0.84513,3.592196 2.42695,4.836457 C 243.99374,73.569519 248.35632,79 247.04344,79 c -0.62389,0 -2.27076,-1.2375 -3.65971,-2.75 z M 230.40499,75.75 228.5,73.5 l 2.25,1.904988 C 232.86444,77.195206 233.45524,78 232.65499,78 c -0.18976,0 -1.20226,-1.0125 -2.25,-2.25 z M 23,76.570847 c 0,-0.69076 9.20153,-6.70265 9.619322,-6.284858 C 33.170814,70.837481 25.313308,77 24.058638,77 23.476387,77 23,76.806881 23,76.570847 Z M 47.320937,63.913628 c 1.805239,-2.755142 15.262313,-11.219211 16.94547,-10.658159 0.588903,0.196301 -1.142624,1.635081 -3.847837,3.197288 -2.705214,1.562208 -7.124441,4.437937 -9.820505,6.39051 -4.311626,3.122612 -4.70627,3.251509 -3.277128,1.070361 z m 178.209073,0.13493 C 224.66701,62.6522 225.76666,61 227.55902,61 c 1.83608,0 1.85059,1.415161 0.03,2.926114 -0.96456,0.800509 -1.61601,0.839249 -2.05902,0.122444 z M 45.5,58 c 0.339919,-0.55 0.816476,-1 1.059017,-1 C 46.801558,57 47,57.45 47,58 47,58.55 46.523442,59 45.940983,59 45.358524,59 45.160081,58.55 45.5,58 Z m 187,0 c -0.33992,-0.55 -0.14148,-1 0.44098,-1 0.58246,0 1.05902,0.45 1.05902,1 0,0.55 -0.19844,1 -0.44098,1 -0.24254,0 -0.7191,-0.45 -1.05902,-1 z m -89.48556,-2.171538 c -2.49774,-0.94289 -12.91849,-9.387439 -16.35753,-13.255464 -1.75987,-1.979409 -1.81392,-1.984081 -1.19714,-0.103479 0.35526,1.083236 0.28465,1.608395 -0.15692,1.16702 -0.89731,-0.896914 -1.21132,-5.698002 -0.33734,-5.157857 0.3061,0.189182 1.42509,-0.291129 2.48665,-1.067358 C 128.52443,36.62726 128.82112,36 128.1197,36 c -0.91121,0 -0.84514,-0.417419 0.23744,-1.5 0.825,-0.825 1.80529,-1.5 2.17842,-1.5 0.37313,0 0.4194,0.675 0.10281,1.5 -0.78136,2.036208 1.26029,1.910326 7.50581,-0.462787 8.17099,-3.104731 30.14198,-2.807186 32.84085,0.444751 2.08608,2.513566 -0.40573,4.899049 -17.48503,16.738943 -6.88586,4.773489 -8.34616,5.415173 -10.48556,4.607555 z m 11.7467,-8.446591 C 166.11317,40.013324 170.35417,36.346547 168.73097,35.303533 166.9234,34.142047 143,33.60861 143,34.729791 c 0,0.514496 -3.38189,1.777596 -7.51531,2.806891 -4.13342,1.029294 -7.39079,2.245018 -7.23859,2.701607 0.61554,1.846632 15.34347,13.671093 16.51504,13.259257 0.69362,-0.243827 5.19362,-2.995881 10,-6.115675 z m -5.22852,0.670915 C 149.17476,47.473754 149.58352,47 150.44098,47 c 0.85746,0 1.56209,-0.3375 1.56585,-0.75 0.0108,-1.187012 6.78466,-5.486171 8.00381,-5.079785 0.60507,0.201689 -1.06229,1.9334 -3.70526,3.848246 -5.94464,4.306942 -5.97722,4.321537 -6.77276,3.034325 z m 81.13405,6.280547 C 230.3,53.966667 230,53.201667 230,52.633333 c 0,-0.626604 0.46577,-0.567562 1.18333,0.15 0.65084,0.650834 0.95084,1.415834 0.66667,1.7 -0.28417,0.284167 -0.81667,0.216667 -1.18333,-0.15 z m 2.86659,-1.890085 c -1.9531,-1.810074 -3.32349,-2.327216 -4.86796,-1.837018 -1.90453,0.604473 -1.99403,0.494791 -0.78501,-0.961984 0.75053,-0.904335 1.872,-1.625958 2.49215,-1.603605 1.81725,0.0655 7.8823,5.683887 6.83469,6.331344 -0.52553,0.324799 -2.17877,-0.543133 -3.67387,-1.928737 z M 120.50708,45.011454 c -0.35034,-0.56686 0.0511,-0.734507 0.94098,-0.393011 C 123.18048,45.283234 123.49745,46 122.05902,46 c -0.51754,0 -1.21592,-0.444846 -1.55194,-0.988546 z M 214.6522,41.38457 c -2.66629,-1.387269 -4.62353,-2.746572 -4.34943,-3.020672 C 210.84141,37.825259 221,42.718739 221,43.516846 c 0,0.897334 -1.48134,0.39974 -6.3478,-2.132276 z M 108.5,37 c -1.92824,-0.828591 -1.92138,-0.861951 0.19098,-0.929715 C 109.89602,36.031628 111.16008,36.45 111.5,37 c 0.731,1.182783 -0.24752,1.182783 -3,0 z M 89,35 c 0,-0.55 0.476558,-1 1.059017,-1 0.582459,0 0.780902,0.45 0.440983,1 -0.339919,0.55 -0.816476,1 -1.059017,1 C 89.198442,36 89,35.55 89,35 Z m 9.5,-1 c 0.339919,-0.55 1.068034,-1 1.61803,-1 0.55,0 0.72189,0.45 0.38197,1 -0.33992,0.55 -1.068034,1 -1.618034,1 -0.55,0 -0.721885,-0.45 -0.381966,-1 z m 106,0 c -0.33992,-0.55 -0.16803,-1 0.38197,-1 0.55,0 1.27811,0.45 1.61803,1 0.33992,0.55 0.16803,1 -0.38197,1 -0.55,0 -1.27811,-0.45 -1.61803,-1 z M 200,33.279142 c -3.66694,-0.65784 -4.5955,-2.020157 -1.01918,-1.495265 1.67401,0.245693 3.28971,0.844831 3.59044,1.331419 0.30072,0.486587 0.40772,0.823422 0.23776,0.748522 C 202.63906,33.788918 201.375,33.525814 200,33.279142 Z M 99.016738,30.327754 c 0.720813,-0.352891 0.647849,-1.02987 -0.225,-2.087621 C 97.713836,26.933892 97.748312,26.756858 99,27.170712 c 1.82832,0.604511 1.99004,3.063331 0.225,3.420955 -0.70125,0.142083 -0.794968,0.02332 -0.208262,-0.263913 z m 5.867422,-1.046877 c 1.3113,-0.936642 3.05761,-1.801825 3.8807,-1.92263 2.10226,-0.308545 0.30306,1.038154 -3.26486,2.443752 l -3,1.181862 z M 94,29.622445 c 0,-0.207656 0.685301,-0.946305 1.522892,-1.641444 1.273347,-1.056784 1.419678,-0.994917 0.893011,0.377555 C 95.878007,29.760293 94,30.742779 94,29.622445 Z m 20.75,-3.284726 c 0.6875,-0.277412 1.8125,-0.277412 2.5,0 0.6875,0.277413 0.125,0.504386 -1.25,0.504386 -1.375,0 -1.9375,-0.226973 -1.25,-0.504386 z m 7.5,-1.027045 c 0.9625,-0.251527 2.5375,-0.251527 3.5,0 0.9625,0.251528 0.175,0.457323 -1.75,0.457323 -1.925,0 -2.7125,-0.205795 -1.75,-0.457323 z m 48.25,-3.787876 c -4.07489,-1.047418 -4.44494,-1.30362 -2,-1.384714 1.65,-0.05473 5.25,0.526577 8,1.291788 3.9421,1.096924 4.36526,1.389901 2,1.384714 -1.65,-0.0036 -5.25,-0.584924 -8,-1.291788 z m 42.36078,-5.572261 -2.36078,-2.049464 3.25,1.575144 C 216.94805,17.026182 217.85897,18 216.11078,18 c -0.48906,0 -1.95156,-0.922259 -3.25,-2.049463 z M 217,16.001587 c -1.925,-1.05302 -6.34125,-2.880413 -9.81388,-4.060873 -8.2661,-2.8099123 -7.29604,-3.6727637 1.18433,-1.053444 7.1679,2.21394 12.15325,4.533048 13.12515,6.105618 0.91983,1.488303 -0.55868,1.162285 -4.4956,-0.991301 z M 99,9.6069888 c 0,-0.2161562 0.698372,-0.6610017 1.55194,-0.9885456 0.88992,-0.3414963 1.29132,-0.1738489 0.94098,0.3930112 C 100.90566,9.9616577 99,10.416902 99,9.6069888 Z M 169.6045,6.9834692 C 159.44,3.9904574 155.78503,2.6596253 159.75,3.3952922 160.9875,3.6248999 162,3.4334009 162,2.9697389 162,2.5060768 160.5375,1.9452223 158.75,1.7233956 156.9625,1.5015688 158.875,1.2533985 163,1.1719059 167.125,1.0904134 172.975,1.6880558 176,2.5 c 3.025,0.8119442 7.075,1.5070022 9,1.5445733 4.15257,0.081048 10.21641,2.0440568 10.674,3.4554267 0.17832,0.55 -1.81288,1.1152887 -4.42489,1.2561971 C 188.6371,8.8971055 184.925,9.2114921 183,9.4548341 180.87323,9.7236827 175.6175,8.7540424 169.6045,6.9834692 Z m 18.31217,-0.6250106 c 0.22916,-0.1971522 -1.57084,-0.3780566 -4,-0.4020097 C 181.4875,5.9324958 177.7,5.5287289 175.5,5.0591891 c -9.40652,-2.0076062 -10.47247,-1.8958566 -3,0.3145047 6.9386,2.0524417 13.67541,2.4827666 15.41667,0.9847648 z M 110.19315,5.5701475 c 7.43695,-2.2175191 25.60551,-5.10481911 26.49915,-4.2111767 0.24107,0.2410636 -2.85358,0.9281681 -6.877,1.5268989 C 125.79189,3.4846005 118.675,4.8919655 114,6.0133476 102.75437,8.7108135 100.52907,8.451741 110.19315,5.5701475 Z"
       id="path158293" />
  </g>
</svg>
