<?xml version="1.0" encoding="UTF-8" standalone="no"?>
<svg
   xml:space="preserve"
   width="180"
   height="180"
   preserveAspectRatio="xMidYMid"
   version="1.0"
   viewBox="0 0 135 135"
   id="svg75"
   sodipodi:docname="apple.svg"
   inkscape:version="1.2.1 (9c6d41e410, 2022-07-14)"
   xmlns:inkscape="http://www.inkscape.org/namespaces/inkscape"
   xmlns:sodipodi="http://sodipodi.sourceforge.net/DTD/sodipodi-0.dtd"
   xmlns:xlink="http://www.w3.org/1999/xlink"
   xmlns="http://www.w3.org/2000/svg"
   xmlns:svg="http://www.w3.org/2000/svg"><sodipodi:namedview
     id="namedview77"
     pagecolor="#ffffff"
     bordercolor="#666666"
     borderopacity="1.0"
     inkscape:showpageshadow="2"
     inkscape:pageopacity="0.0"
     inkscape:pagecheckerboard="0"
     inkscape:deskcolor="#d1d1d1"
     showgrid="false"
     inkscape:zoom="1.6570798"
     inkscape:cx="-9.3538041"
     inkscape:cy="102.28837"
     inkscape:window-width="1712"
     inkscape:window-height="894"
     inkscape:window-x="0"
     inkscape:window-y="0"
     inkscape:window-maximized="1"
     inkscape:current-layer="svg75" /><g
     id="g1263"
     transform="matrix(0.10402167,0,0,0.10402167,8.9876569,8.987755)"><g
       clip-path="url(#a)"
       transform="matrix(1.09599,0,0,1.09599,-674.07,-513.574)"
       id="g8"><g
         clip-path="url(#b)"
         style="fill:#6798c0;fill-opacity:1;stroke:none;stroke-width:0.99975;stroke-dasharray:none"
         id="g6"><g
           clip-path="url(#c)"
           style="fill:#6798c0;fill-opacity:1;stroke:none;stroke-width:0.99975;stroke-dasharray:none"
           id="g4"><path
             fill="#ffcf0f"
             d="m 1179.21,523.77 c -143.003,-14.348 -261.472,35.855 -375.73,116.82 -142.546,103.129 -165.91,351.84 -45.902,484.277 157.43,176.922 630.89,182.52 774.774,-25.258 111.066,-161.515 -4.961,-417.234 -169.559,-493.925 -53.27,-26.645 -110.148,-60.633 -167.16,-76.325 l -16.414,-5.578"
             style="fill:#6798c0;fill-opacity:1;stroke:none;stroke-width:0.99975;stroke-dasharray:none"
             id="path2" /></g></g></g><g
       clip-path="url(#d)"
       style="fill:#6798c0;fill-opacity:1;stroke:none;stroke-width:0.99975;stroke-dasharray:none"
       transform="matrix(1.09599,0,0,1.09599,-674.07,-513.574)"
       id="g16"><g
         clip-path="url(#e)"
         style="fill:#6798c0;fill-opacity:1;stroke:none;stroke-width:0.99975;stroke-dasharray:none"
         id="g14"><g
           clip-path="url(#f)"
           style="fill:#6798c0;fill-opacity:1;stroke:none;stroke-width:0.99975;stroke-dasharray:none"
           id="g12"><path
             fill="#ffcf0f"
             d="m 1428.2,1252.574 c -19.345,-1.941 -35.364,4.848 -50.825,15.793 -19.273,13.945 -22.434,47.578 -6.191,65.492 21.273,23.93 85.308,24.668 104.77,-3.418 15.019,-21.836 -0.677,-56.414 -22.93,-66.785 -7.204,-3.605 -14.895,-8.21 -22.606,-10.324 l -2.219,-0.758"
             style="fill:#6798c0;fill-opacity:1;stroke:none;stroke-width:0.99975;stroke-dasharray:none"
             id="path10" /></g></g></g><g
       clip-path="url(#g)"
       style="fill:#6798c0;fill-opacity:1;stroke:none;stroke-width:0.99975;stroke-dasharray:none"
       transform="matrix(1.09599,0,0,1.09599,-674.07,-513.574)"
       id="g24"><g
         clip-path="url(#h)"
         style="fill:#6798c0;fill-opacity:1;stroke:none;stroke-width:0.99975;stroke-dasharray:none"
         id="g22"><g
           clip-path="url(#i)"
           style="fill:#6798c0;fill-opacity:1;stroke:none;stroke-width:0.99975;stroke-dasharray:none"
           id="g20"><path
             fill="#ffcf0f"
             d="m 1445.738,1442.328 c 9.684,-0.426 16.844,-5.398 23.27,-12.598 7.984,-9.144 6,-27.855 -3.84,-36.418 -12.957,-11.484 -44.461,-6.968 -51.055,9.961 -5.074,13.145 6.274,30.922 18.278,34.887 3.91,1.414 8.18,3.36 12.18,3.918 l 1.167,0.25"
             style="fill:#6798c0;fill-opacity:1;stroke:none;stroke-width:0.99975;stroke-dasharray:none"
             id="path18" /></g></g></g><g
       style="display:inline;stroke:#000000;stroke-width:7.5;stroke-dasharray:none;stroke-opacity:1"
       id="g34"><path
         d="M 10.48,66.234 C 30.401,48.53 44.302,34.84 60.49,25.08 84.874,10.378 110.562,3.811 139.074,1.532 c 32.01,-2.56 67.078,3.826 101.95,27.675 16.692,11.417 32.374,28.95 48.202,49.602 4.672,3.932 9.153,7.66 9.37,11.94 0.178,3.508 -2.768,7.48 -8.649,11.46 l -4.92,4.592 -133.714,106.127 c -17.323,13.383 -18.5,11.538 -31.054,-1.318 L 103.749,197.425 96.622,188.749 79.524,177.178 71.518,163.795 60.912,154.342 50.607,135.79 30.401,119.515 22.004,106.279 11.734,95.833 c -12.76,-9.89 -14.322,-18.04 -1.255,-29.6 z"
         style="display:inline;fill:#f0ca4f;fill-opacity:0.996078;stroke:#000000;stroke-width:2.88982;stroke-linecap:butt;stroke-linejoin:miter;stroke-dasharray:none;stroke-opacity:1"
         transform="matrix(2.5855,0,0,2.60518,167.826,293.143)"
         id="path26" /><path
         d="m -40.924,90.733 39.15,0.693 c 4.563,13.967 5.51,27.636 0.608,42.485 -13.115,0.368 -26.18,0.558 -38.889,-0.544 z"
         style="fill:#e8a62e;fill-opacity:0.996078;stroke:#000000;stroke-width:2.88982;stroke-dasharray:none;stroke-opacity:1"
         transform="matrix(1.85546,-1.81428,1.80058,1.86958,167.824,293.141)"
         id="path28" /><path
         d="m 75.07,64.221 c 7.098,-7.057 15.873,-13.92 23.824,-20.88 3.834,-2.49 7.919,-3.248 12.513,-0.49 6.22,6.886 7.72,2.62 17.582,17.438 L 99.681,87.395 Z m 50.864,-23.839 19.692,-7.935 c 10.226,-0.882 19.035,-0.04 25.448,3.721 l -25.97,20.093 z M 66.783,133.287 C 72.42,120.03 82.99,109.68 95.315,105.6 c 13.002,6.845 24.656,14.565 31.48,28.636 -7.982,11.32 -11.845,21.232 -25.853,28.613 -13.186,-8.055 -22.817,-19.663 -34.16,-29.56 z m 41.494,-35.536 c 8.834,-11.472 16.691,-20.813 26.943,-28.222 0.841,0.375 3.276,0.346 4.127,1.042 10.57,8.631 23.092,14.955 29.438,28.042 -0.019,1.344 -0.423,2.342 -1.553,3.412 -8.047,7.613 -17.772,19.38 -28.886,26.712 -10.462,-10.307 -22.688,-20.524 -30.07,-30.986 z m 44.636,-35.936 c -8.355,-0.405 17.846,-22.134 30.279,-28.324 13.002,6.845 22.711,12.43 30.603,28.993 -8.203,11.029 -18.11,19.798 -29.942,30.039 -15.429,-8.108 -26.448,-16.799 -30.94,-30.708 z m 40.544,36.124 c -2.38,0.97 -1.178,-4.527 1.568,-6.237 11.315,-7.048 17.85,-17.316 29.134,-22.79 13.002,6.845 24.797,14.671 32.567,27.974 -7.981,11.32 -11.755,24.876 -25.762,32.256 -17.166,-7.82 -30.848,-21.03 -37.507,-31.203 z m -80.482,72.009 c 3.024,-6.767 8.865,-10.393 19.764,-23.574 13.003,6.845 29.561,16.516 36.384,30.586 -7.981,11.32 -11.845,21.232 -25.852,28.613 -9.917,-6.406 -23.346,-21.432 -31.179,-26.81 -4.84,-3.323 -0.735,-9.825 0.883,-8.815 z"
         style="fill:#e8a62e;fill-opacity:0.996078;stroke:#000000;stroke-width:2.88982;stroke-dasharray:none;stroke-opacity:1"
         transform="matrix(2.5855,0,0,2.60518,167.826,293.143)"
         id="path30" /><path
         d="m 109.471,204.088 c 1.583,19.618 -12.94,45.233 -4.044,50.75 6.195,8.282 22.366,4.081 35.093,4.19 6.4,0.903 11.811,1.572 16.694,2.086 13.248,1.396 21.637,-0.075 26.825,-2.733 7.37,-8.777 16.323,-13.493 34.649,-24.228 9.869,-14.525 12.262,-33.542 30.417,-37.599 12.553,-6.904 26.442,-13.2 30.274,-24.727 2.058,-6.19 -0.276,-13.605 -2.178,-23.985 7.32,-14.029 28.419,-31.01 7.46,-38.98 l -46.27,-17.407 c -9.608,-5.722 -18.845,-1.732 -27.942,5.899 -7.319,14.782 -22.693,14.357 -37.527,14.953 -17.169,5.408 -29.533,14.5 -40.326,32.935 4.757,7.106 -6.988,28.647 -13.916,44.142 -1.087,7.861 -4.446,12.33 -9.209,14.704 z"
         style="fill:url(#j);fill-opacity:1;stroke:#000000;stroke-width:2.88982;stroke-linecap:butt;stroke-linejoin:miter;stroke-dasharray:none;stroke-opacity:1"
         transform="matrix(2.5855,0,0,2.60518,167.826,293.143)"
         id="path32" /></g><g
       style="display:inline;stroke:#000000;stroke-width:7.5;stroke-dasharray:none;stroke-opacity:1"
       id="g38"><path
         d="m 112.469,261.002 c -10.35,-3.23 -13.606,-14.89 -7.876,-28.209 3.328,-7.737 4.749,-22.353 2.677,-27.543 -0.713,-1.788 -1.746,-3.25 -2.296,-3.25 -0.55,0 -2.522,-2.362 -4.383,-5.25 -4.48,-6.951 -12.955,-14.417 -18.953,-16.698 -2.56,-0.973 -8.73,-8.777 -11.93,-15.087 -0.984,-1.943 -3.98,-5.42 -6.657,-7.726 -3.3,-2.842 -5.434,-5.73 -6.626,-8.966 -2.207,-5.99 -3.488,-7.415 -16.581,-18.437 -5.862,-4.933 -11.197,-10.275 -11.858,-11.87 -0.66,-1.595 -1.873,-3.458 -2.695,-4.14 -0.822,-0.681 -2.965,-3.539 -4.763,-6.349 -1.797,-2.81 -4.724,-6.205 -6.503,-7.543 C 12.245,98.595 8.595,95.25 5.912,92.5 1.15,87.618 1.035,87.355 1.018,81.329 L 1,75.158 7.573,67.828 c 8.032,-8.954 14.73,-15.289 23.927,-22.63 3.85,-3.073 9.634,-7.947 12.853,-10.832 7.804,-6.992 31.704,-20.075 39.209,-21.462 3.098,-0.573 5.868,-0.808 6.154,-0.521 0.286,0.286 -0.77,0.774 -2.348,1.086 -6.484,1.279 -12.39,3.726 -20.199,8.371 -9.822,5.842 -12.026,7.732 -3.857,3.308 6.257,-3.39 7.146,-3.698 6.186,-2.145 -0.34,0.551 -2.64,1.923 -5.109,3.047 C 59.37,28.337 52,34.554 52,36.501 c 0,1.322 -3.197,3.734 -8.756,6.607 -5.777,2.986 -6.823,2.95 -3.282,-0.114 C 41.866,41.347 43.774,40 44.2,40 c 0.427,0 3.469,-2.718 6.76,-6.04 4.375,-4.416 5.155,-5.559 2.9,-4.25 -1.696,0.985 -4.496,3.41 -6.222,5.388 -1.726,1.979 -5.725,5.305 -8.888,7.392 -3.163,2.086 -5.75,3.98 -5.75,4.21 0,0.23 0.563,0.094 1.25,-0.302 0.688,-0.396 0.16,0.477 -1.174,1.94 -1.334,1.464 -2.909,2.652 -3.5,2.64 C 28.984,50.966 29.625,50.076 31,49 c 1.375,-1.076 2.016,-1.966 1.424,-1.978 -1.143,-0.023 -5.092,3.815 -5.613,5.456 -0.171,0.538 -0.986,1.067 -1.811,1.175 -1.569,0.206 -12.325,11.309 -19.175,19.794 -3.307,4.096 -3.895,5.472 -3.415,8 0.979,5.163 1.153,5.567 3.38,7.844 a 380.802,380.802 0 0 1 4.792,5.02 c 2.61,2.79 4.794,3.052 2.512,0.302 -0.867,-1.044 -0.887,-1.623 -0.076,-2.124 1.497,-0.925 2.263,-0.01 2.418,2.89 0.139,2.6 7.303,11.585 9.255,11.607 2.675,0.03 1.998,-1.873 -1.982,-5.573 -2.315,-2.152 -3.646,-3.26 -2.959,-2.463 0.688,0.797 1.25,1.837 1.25,2.309 0,1.33 -1.865,-0.138 -3.094,-2.435 -0.8,-1.494 -0.801,-1.877 -0.006,-1.386 0.605,0.374 1.1,0.145 1.1,-0.509 0,-0.654 1.983,0.557 4.406,2.691 4.872,4.29 6.097,8.38 2.51,8.38 -1.222,0 -1.91,0.517 -1.666,1.25 0.23,0.688 1.054,1.25 1.833,1.25 0.78,0 1.429,0.45 1.443,1 0.014,0.55 0.598,1.9 1.298,3 1.194,1.878 1.235,1.847 0.675,-0.5 -0.454,-1.908 -0.005,-1.569 1.9,1.432 1.372,2.162 2.229,4.361 1.904,4.887 -0.593,0.959 0.77,2.251 8.197,7.779 5.43,4.041 15.5,13.994 15.503,15.324 10e-4,0.593 1.35,1.978 2.997,3.078 1.647,1.1 2.993,2.675 2.992,3.5 -10e-4,0.928 -0.94,0.356 -2.461,-1.5 -1.352,-1.65 -2.475,-2.647 -2.495,-2.215 -0.076,1.66 3.59,6.442 9.162,11.952 3.191,3.156 5.802,6.188 5.802,6.738 0,1.482 7.28,12.025 8.303,12.025 0.484,0 3.445,1.8 6.581,4 3.137,2.2 6.133,4.001 6.66,4.003 0.526,0.002 1.828,1.305 2.894,2.896 1.067,1.592 2.53,2.667 3.25,2.39 0.888,-0.34 1.312,0.392 1.312,2.263 0,3.762 8.942,12.302 10.314,9.85 0.633,-1.13 0.007,-2.663 -2.216,-5.43 -1.704,-2.12 -3.098,-4.185 -3.098,-4.588 0,-1.29 4.943,3.86 5.555,5.789 0.92,2.9 2.105,1.358 4.509,-5.864 l 2.219,-6.669 -2.628,-2.07 a 674.579,674.579 0 0 1 -5.107,-4.07 c -2.599,-2.097 -4.56,-7.5 -2.723,-7.5 0.573,0 1.185,1.211 1.359,2.691 0.23,1.966 1.501,3.383 4.71,5.254 6.08,3.546 6.78,4.942 5.12,10.217 -1.845,5.862 -7.193,14.775 -8.886,14.81 -1.098,0.022 -1.127,0.324 -0.145,1.507 0.93,1.12 0.96,2.247 0.122,4.65 -0.608,1.743 -1.105,5.965 -1.105,9.382 0,4.774 -0.699,7.754 -3.018,12.87 -3.71,8.18 -4.202,15.508 -1.303,19.391 5.04,6.75 9.304,7.686 26.404,5.8 5.55,-0.613 8.633,-0.484 11.5,0.482 2.154,0.726 8.642,1.627 14.417,2.003 9.685,0.63 9.452,0.654 -3,0.317 -7.425,-0.2 -15.975,-0.452 -19,-0.558 -3.025,-0.106 -8.875,0.106 -13,0.47 -4.125,0.364 -8.864,0.236 -10.531,-0.284 z m 62.234,-0.052 c 2.312,-0.456 5.19,-1.357 6.395,-2.002 3.79,-2.028 10.906,-9.133 10.235,-10.218 -0.353,-0.572 -0.181,-0.754 0.382,-0.406 0.563,0.348 2.607,-0.906 4.542,-2.785 2.184,-2.122 5.593,-4.02 8.984,-5.007 9.88,-2.872 18.177,-12.245 22.823,-25.783 2.584,-7.53 4.97,-10.235 13.836,-15.687 3.347,-2.059 5.751,-4.101 5.343,-4.54 -0.409,-0.437 -0.068,-0.573 0.757,-0.3 3.09,1.022 25.556,-12.089 28.553,-16.663 2.71,-4.137 3.524,-9.53 2.331,-15.454 -0.597,-2.968 -1.38,-4.922 -1.737,-4.343 -0.358,0.58 -0.778,-2.058 -0.932,-5.861 l -0.282,-6.915 4.524,-4.836 c 2.488,-2.66 4.19,-5.204 3.783,-5.654 -0.407,-0.449 -0.216,-0.517 0.425,-0.15 1.427,0.817 4.484,-4.01 6.889,-10.88 1.553,-4.436 1.595,-5.387 0.354,-8 -0.824,-1.737 -3.106,-3.795 -5.504,-4.966 -2.261,-1.104 -3.907,-2.552 -3.673,-3.231 0.416,-1.212 8.703,-7.229 10.07,-7.311 1.293,-0.079 5.199,-7.074 5.199,-9.312 0,-1.429 -3.107,-5.428 -8.75,-11.264 -4.813,-4.977 -13.7,-14.601 -19.75,-21.387 -6.05,-6.786 -12.672,-13.551 -14.716,-15.034 -2.044,-1.482 -3.49,-2.922 -3.211,-3.2 0.721,-0.722 -9.078,-9.353 -15.573,-13.717 -10.068,-6.765 -10.88,-6.527 -1.25,0.368 5.446,3.899 7.33,6.177 2.5,3.022 -6.651,-4.344 -10.73,-7.7 -10.471,-8.616 0.153,-0.545 -0.635,-1.229 -1.75,-1.52 C 223.107,18.795 222.125,17 223.771,17 c 2.653,0 17.532,10.293 24.481,16.935 4.536,4.337 9.374,8.77 10.75,9.852 1.375,1.082 7.45,7.518 13.5,14.303 6.049,6.784 14.485,15.983 18.748,20.44 6.834,7.148 7.75,8.548 7.75,11.838 0,2.052 -0.659,5.005 -1.464,6.563 -1.675,3.238 -7.057,8.069 -8.99,8.069 -0.716,0 -1.813,0.617 -2.44,1.372 -0.903,1.088 -0.53,1.624 1.806,2.591 10.415,4.315 8.724,17.457 -3.945,30.65 -6.8,7.081 -7.065,8.303 -3.954,18.226 1.093,3.487 1.987,7.889 1.987,9.782 0,3.901 -2.243,9.866 -4.788,12.735 -2.556,2.881 -13.304,9.553 -25.957,16.113 -15.019,7.787 -18.674,11.007 -20.777,18.304 -3.775,13.094 -13.819,24.73 -23.866,27.651 -4.322,1.257 -6.532,2.77 -11.245,7.702 -8.505,8.897 -13.562,11.9 -19.813,11.764 L 170.5,261.78 Z M 116,254.29 c -2.886,-1.06 -5,-3.62 -5,-6.054 0,-2.255 0.285,-2.405 3.5,-1.845 l 7,1.218 c 1.925,0.336 3.5,1.046 3.5,1.58 0,0.533 -1.238,0.725 -2.75,0.425 -1.512,-0.3 -4.5,-0.848 -6.637,-1.217 l -3.887,-0.671 2.168,2.168 c 2.729,2.729 7.586,3.782 9.628,2.088 2.126,-1.764 2.933,-0.58 0.954,1.399 -1.586,1.586 -5.496,2.005 -8.476,0.91 z m 64.75,-25.742 c -0.963,-1.333 -1.75,-2.765 -1.75,-3.181 0,-1.522 5.424,-6.367 7.128,-6.367 0.965,0 2.061,-0.497 2.436,-1.104 0.833,-1.347 8.362,-4.85 10.436,-4.856 1.334,-0.003 -4.076,3.37 -12.428,7.749 -1.61,0.844 -3.705,2.2 -4.656,3.015 -1.636,1.4 -1.63,1.586 0.1,3.445 1.05,1.126 2.345,1.646 3.037,1.218 0.77,-0.476 1.04,-0.243 0.744,0.644 -0.763,2.29 -3.183,2.02 -5.047,-0.563 z M 200,228 c 0,-0.55 0.477,-1 1.059,-1 0.582,0 0.78,0.45 0.441,1 -0.34,0.55 -0.816,1 -1.059,1 -0.243,0 -0.441,-0.45 -0.441,-1 z m -13.037,-2.93 c 0.568,-1.062 2.325,-2.851 3.904,-3.976 3.509,-2.498 8.519,-4.527 7.631,-3.091 -0.339,0.548 -1.04,0.997 -1.557,0.997 -0.955,0 -3.099,1.682 -7.33,5.75 -2.871,2.76 -4.03,2.9 -2.648,0.32 z M 215,217.31 c 0,-0.55 0.9,-1.815 2,-2.81 1.1,-0.995 2,-1.36 2,-0.81 0,0.55 -0.9,1.815 -2,2.81 -1.1,0.995 -2,1.36 -2,0.81 z m -76,-4.417 c 0,-0.609 0.605,-0.875 1.345,-0.59 1.693,0.649 9.971,-2.983 9.294,-4.078 -0.275,-0.445 0.373,-0.876 1.44,-0.956 1.067,-0.08 3.311,-1.123 4.988,-2.317 1.676,-1.193 3.286,-1.933 3.576,-1.643 0.942,0.942 -10.803,9.473 -13.893,10.09 -4.491,0.9 -6.75,0.73 -6.75,-0.506 z M 136.5,212 c -0.34,-0.55 -0.141,-1 0.441,-1 0.582,0 1.059,0.45 1.059,1 0,0.55 -0.198,1 -0.441,1 -0.243,0 -0.72,-0.45 -1.059,-1 z m 78,-1 c 0.34,-0.55 0.816,-1 1.059,-1 0.243,0 0.441,0.45 0.441,1 0,0.55 -0.477,1 -1.059,1 -0.582,0 -0.78,-0.45 -0.441,-1 z M 150,203.118 c 0,-0.55 0.45,-1.278 1,-1.618 0.55,-0.34 1,-0.168 1,0.382 0,0.55 -0.45,1.278 -1,1.618 -0.55,0.34 -1,0.168 -1,-0.382 z m -41.333,-12.785 c -0.367,-0.366 -0.667,-1.131 -0.667,-1.7 0,-0.626 0.466,-0.567 1.183,0.15 0.651,0.651 0.951,1.416 0.667,1.7 -0.284,0.284 -0.817,0.217 -1.183,-0.15 z m -5.064,-3.833 c -1.044,-0.79 -2.281,-1.199 -2.75,-0.909 -1.067,0.66 -1.083,-0.681 -0.027,-2.343 0.58,-0.915 1.572,-0.442 3.672,1.75 2.977,3.107 2.433,4.021 -0.895,1.502 z M 97.195,185 c -1.113,-2.668 -2.352,-4.427 -11.603,-16.484 -3.249,-4.235 -6.445,-7.906 -7.101,-8.158 -0.657,-0.252 -4.24,-4.479 -7.963,-9.393 -3.722,-4.914 -7.233,-8.647 -7.802,-8.295 -0.618,0.381 -0.732,0.148 -0.283,-0.578 0.414,-0.67 0.111,-1.977 -0.673,-2.905 C 60.12,137.236 55.9,130 56.412,130 c 0.292,0 11.98,15.02 16.549,21.27 0.803,1.098 3.278,3.83 5.5,6.069 2.221,2.24 4.502,4.992 5.069,6.116 0.566,1.125 1.662,2.045 2.436,2.045 0.774,0 1.763,1.35 2.199,3 0.435,1.65 2.415,4.8 4.399,7 4.213,4.67 6.741,9.143 6.116,10.818 -0.243,0.65 -0.911,0.057 -1.485,-1.318 z m 160.555,-1.692 c -0.963,-0.25 -1.747,-0.984 -1.743,-1.631 0.009,-1.478 6.076,-5.677 8.201,-5.677 0.872,0 2.981,-1.59 4.688,-3.535 1.707,-1.944 3.104,-3.15 3.104,-2.68 0,1.701 -5.657,7.137 -10.029,9.635 -2.459,1.406 -3.85,2.561 -3.089,2.568 4.3,0.037 16.118,-11.693 16.118,-16 0,-1.887 -0.236,-2.037 -1.524,-0.968 -1.998,1.658 -3.287,0.343 -1.416,-1.445 0.993,-0.95 2.138,-1.107 3.69,-0.508 2.528,0.976 2.683,1.663 1.237,5.468 -1.5,3.947 -11.423,14.465 -13.645,14.465 -0.648,0 -1.778,0.172 -2.51,0.381 -0.733,0.21 -2.12,0.177 -3.082,-0.073 z m -135.135,-4.484 c 0.785,-5.122 2.259,-8.09 6.366,-12.824 1.893,-2.181 2.77,-2.746 2.328,-1.5 -0.39,1.1 -1.496,2.848 -2.459,3.885 -2.505,2.697 -4.85,7.996 -4.85,10.957 0,1.397 -0.46,2.825 -1.024,3.173 -0.674,0.417 -0.797,-0.842 -0.36,-3.691 z m -3.97,1.708 c -1.02,-0.773 -1.674,-1.945 -1.454,-2.605 0.23,-0.688 1.137,-0.076 2.128,1.436 1.967,3.003 1.9,3.119 -0.673,1.169 z M 89.872,178.25 c -1.243,-1.586 -1.208,-1.621 0.378,-0.378 0.963,0.755 1.75,1.543 1.75,1.75 0,0.823 -0.821,0.294 -2.128,-1.372 z M 104.5,175 c 0.34,-0.55 0.816,-1 1.059,-1 0.243,0 0.441,0.45 0.441,1 0,0.55 -0.477,1 -1.059,1 -0.582,0 -0.78,-0.45 -0.441,-1 z m 14.5,-1.385 c 0,-0.212 1.238,-1.181 2.75,-2.155 l 2.75,-1.77 -1.905,2.155 c -1.686,1.907 -3.595,2.847 -3.595,1.77 z m -1.224,-5.115 c 3.016,-4.017 7.224,-8.262 7.224,-7.289 0,0.287 -2.301,2.944 -5.114,5.905 -4.038,4.252 -4.482,4.543 -2.11,1.384 z m -1.329,-4.904 c 4.446,-4.968 6.203,-7.598 5.34,-7.991 -0.708,-0.323 -0.334,-0.354 0.831,-0.07 2.284,0.556 5.648,-3.274 5.035,-5.733 -0.179,-0.716 -0.133,-0.955 0.101,-0.532 0.602,1.089 3.5,-3 5.709,-8.055 1.204,-2.757 5.503,-7.782 12.058,-14.095 13.154,-12.67 19.816,-15.763 36.963,-17.16 6.24,-0.509 12.48,-1.442 13.865,-2.073 l 2.52,-1.149 -3.934,-5.326 c -5.157,-6.98 -5.005,-8.08 0.32,-2.319 2.334,2.526 5.033,4.875 5.995,5.219 2.777,0.992 2.061,2.489 -2.241,4.683 -2.927,1.493 -7.127,2.255 -15.75,2.856 -10.692,0.745 -12.481,1.165 -19.718,4.63 -6.145,2.94 -9.826,5.656 -16.145,11.914 -11.259,11.147 -13.372,14.513 -13.496,21.495 -0.054,3.085 -0.477,6.735 -0.94,8.11 -0.53,1.582 -0.63,0.205 -0.27,-3.75 0.631,-6.94 -0.448,-8.065 -2.88,-3 -1.521,3.17 -10.973,14.504 -15.01,18 -1.112,0.962 -2.687,1.75 -3.5,1.75 -0.843,0 1.375,-3.19 5.147,-7.404 z M 94.638,168.5 c 0.317,-0.825 0.753,-1.5 0.969,-1.5 0.216,0 0.393,0.675 0.393,1.5 0,0.825 -0.436,1.5 -0.969,1.5 -0.532,0 -0.71,-0.675 -0.393,-1.5 z m 4.022,0.242 c 0.281,-0.456 -0.075,-1.597 -0.794,-2.536 -0.718,-0.938 -0.082,-0.615 1.414,0.718 1.496,1.334 2.72,2.475 2.72,2.536 0,0.061 -0.867,0.111 -1.927,0.111 -1.06,0 -1.695,-0.373 -1.413,-0.83 z m -24.483,-3.83 c -0.723,-1.159 -1.124,-2.299 -0.889,-2.534 0.694,-0.693 2.932,2.461 2.553,3.598 -0.191,0.574 -0.94,0.095 -1.664,-1.064 z M 202,166 c 1.939,-1.253 3,-1.253 3,0 0,0.55 -1.012,0.993 -2.25,0.985 -1.82,-0.013 -1.963,-0.201 -0.75,-0.985 z M 87.5,164 c -0.34,-0.55 -0.168,-1 0.382,-1 0.55,0 1.278,0.45 1.618,1 0.34,0.55 0.168,1 -0.382,1 -0.55,0 -1.278,-0.45 -1.618,-1 z m 1.885,-2.232 c -1.587,-1.227 -3.035,-2.577 -3.218,-3 C 85.983,158.346 85.405,158 84.881,158 c -0.55,0 -0.48,0.88 0.165,2.086 0.614,1.147 0.891,2.31 0.616,2.585 -0.275,0.275 -1.028,-0.487 -1.674,-1.693 -2.596,-4.85 3.612,-4.26 7.353,0.699 2.194,2.909 1.715,2.931 -1.956,0.091 z m 5.856,-0.171 c -1.792,-1.268 -8.41,-7.49 -14.707,-13.828 C 74.238,141.432 68.392,135.981 67.544,135.655 65.86,135.009 65.335,129 66.963,129 c 0.53,0 2.737,-2.613 4.906,-5.807 2.168,-3.193 5.557,-6.906 7.53,-8.25 1.973,-1.343 3.59,-2.715 3.594,-3.047 0.009,-0.762 3.653,-4.566 7.81,-8.154 1.759,-1.516 3.197,-2.36 3.197,-1.872 0,0.487 -0.696,1.463 -1.547,2.17 -1.236,1.025 -1.287,1.45 -0.25,2.106 1,0.634 0.94,0.827 -0.262,0.839 -0.858,0.008 -3.67,2.46 -6.25,5.447 -2.579,2.988 -5.477,5.69 -6.44,6.005 -1.972,0.644 -9.74,11.563 -8.225,11.563 0.536,0 0.974,0.675 0.974,1.5 0,0.825 -0.675,1.5 -1.5,1.5 -0.825,0 -1.507,-0.787 -1.515,-1.75 -0.013,-1.464 -0.167,-1.51 -0.943,-0.284 -1.123,1.775 0.68,4.355 2.543,3.64 0.695,-0.267 2.054,0.725 3.02,2.204 2.562,3.925 21.416,22.116 24.7,23.832 2.756,1.44 2.926,1.36 9.75,-4.69 3.82,-3.387 6.945,-6.483 6.945,-6.88 0,-0.396 2.475,-3.579 5.5,-7.072 3.025,-3.493 5.487,-7.285 5.47,-8.426 -0.027,-1.967 -3.915,-6.908 -7.14,-9.074 -5.674,-3.812 -11.682,-8.377 -13.816,-10.5 -1.383,-1.375 -3.786,-3.157 -5.341,-3.96 -2.858,-1.476 -5.296,-4.75 -4.288,-5.759 0.301,-0.3 2.117,0.75 4.036,2.336 1.918,1.586 5.806,4.683 8.638,6.883 2.833,2.2 6.625,5.238 8.428,6.75 1.802,1.513 3.692,2.75 4.199,2.75 0.507,0 2.36,1.484 4.118,3.298 2.45,2.527 3.196,4.18 3.196,7.078 0,4.142 -3.446,8.714 -17.573,23.314 -7.858,8.122 -9.768,8.739 -15.186,4.907 z M 75,161 c -0.901,-0.582 -1.025,-0.975 -0.309,-0.985 0.655,-0.008 1.47,0.435 1.809,0.985 0.767,1.242 0.421,1.242 -1.5,0 z m 52.28,-3.573 c 0.873,-1.69 2.362,-3.715 3.309,-4.5 1.618,-1.343 1.626,-1.245 0.131,1.646 -0.873,1.69 -2.362,3.715 -3.309,4.5 -1.618,1.343 -1.626,1.245 -0.131,-1.646 z m -23.73,-0.692 c 1.072,-1.47 2.4,-2.693 2.95,-2.719 0.55,-0.026 0.325,-0.483 -0.5,-1.016 -1.293,-0.835 -1.266,-0.971 0.191,-0.985 3.153,-0.028 2.803,1.752 -0.901,4.577 l -3.69,2.815 z m -39.091,-1.802 c -1.076,-1.741 0.15,-2.11 1.52,-0.457 0.79,0.95 0.866,1.524 0.202,1.524 -0.584,0 -1.36,-0.48 -1.722,-1.067 z m 4.84,-2.159 c -2.269,-2.929 -2.409,-4.116 -0.242,-2.052 1.282,1.222 2.084,2.47 1.78,2.774 -0.304,0.304 -0.996,-0.021 -1.539,-0.722 z M 117.5,153 c 0.34,-0.55 1.068,-1 1.618,-1 0.55,0 0.722,0.45 0.382,1 -0.34,0.55 -1.068,1 -1.618,1 -0.55,0 -0.722,-0.45 -0.382,-1 z m 102.21,-3.148 c 6.042,-6.612 8.659,-8.852 10.339,-8.852 0.863,0 2.442,-0.66 3.51,-1.468 2.914,-2.205 4.3,-1.765 1.58,0.501 -1.298,1.082 -3.16,1.967 -4.139,1.967 -0.978,0 -4.39,2.7 -7.582,6 -6.527,6.748 -9.572,8.269 -3.708,1.852 z M 111,150.362 c 0,-1.022 6.226,-8.469 6.692,-8.003 0.652,0.652 -3.96,7.506 -5.442,8.088 -0.688,0.27 -1.25,0.232 -1.25,-0.084 z m -6.115,-4.886 C 102.365,142.742 92.56,136 91.103,136 c -0.472,0 -1.399,-0.651 -2.06,-1.447 -0.84,-1.013 0.298,-0.814 3.797,0.664 5.002,2.113 16.094,11.182 15.007,12.269 -0.317,0.317 -1.65,-0.587 -2.962,-2.01 z M 121.5,138 c 0.34,-0.55 0.816,-1 1.059,-1 0.243,0 0.441,0.45 0.441,1 0,0.55 -0.477,1 -1.059,1 -0.582,0 -0.78,-0.45 -0.441,-1 z M 231,134.035 c 0,-0.53 1.012,-1.496 2.25,-2.145 2.238,-1.175 2.24,-1.17 0.345,0.964 -2.116,2.384 -2.595,2.602 -2.595,1.181 z M 86,131.225 C 86,130.262 96.582,119 97.487,119 c 0.768,0 -1.952,3.559 -6.948,9.088 C 87.014,131.99 86,132.691 86,131.225 Z M 120.5,129 c -0.34,-0.55 -0.168,-1 0.382,-1 0.55,0 1.278,0.45 1.618,1 0.34,0.55 0.168,1 -0.382,1 -0.55,0 -1.278,-0.45 -1.618,-1 z m 13.345,-2.567 c -2.39,-1.961 -7.578,-6.799 -11.528,-10.75 -3.951,-3.95 -8.564,-8.392 -10.25,-9.87 -2.146,-1.879 -3.067,-3.588 -3.067,-5.69 0,-1.653 -0.45,-3.283 -1,-3.623 -0.55,-0.34 -1,-0.115 -1,0.5 0,0.615 -0.45,0.84 -1,0.5 -1.84,-1.137 -1.027,-2.327 1.407,-2.06 1.706,0.188 2.718,-0.42 3.478,-2.088 C 111.748,91.46 111.668,91 110.479,91 109.665,91 109,90.55 109,90 c 0,-1.369 3.743,-1.271 4.203,0.11 0.222,0.664 0.958,0.386 1.834,-0.692 0.881,-1.086 0.966,-1.503 0.213,-1.05 -1.5,0.9 -1.54,0.527 -0.3,-2.736 0.674,-1.774 0.602,-2.64 -0.25,-2.986 -0.66,-0.269 -0.413,-0.524 0.55,-0.567 0.963,-0.043 1.75,-0.56 1.75,-1.146 0,-0.646 -0.89,-0.794 -2.25,-0.376 -3.04,0.934 -3.067,0.983 -1.818,3.315 0.897,1.677 0.744,2.231 -0.854,3.086 -2.895,1.55 -3.59,1.265 -1.784,-0.73 1.062,-1.173 1.303,-2.262 0.713,-3.217 -1.972,-3.19 3.304,-5.116 8.477,-3.095 1.934,0.755 1.928,0.81 -0.25,2.17 -1.229,0.767 -2.234,1.996 -2.234,2.731 0,0.735 1.204,-0.16 2.675,-1.99 C 128.477,71.879 134.72,67.12 136.5,70 c 0.34,0.55 0.08,1 -0.579,1 C 132.401,71 111,95.763 111,99.836 c 0,1.172 1.635,3.57 3.674,5.388 2.02,1.802 7.642,7.101 12.492,11.776 4.85,4.675 9.697,8.895 10.77,9.377 1.524,0.686 2.887,0.074 6.256,-2.81 2.37,-2.028 4.308,-4.11 4.308,-4.627 0,-0.517 0.39,-0.888 0.865,-0.825 0.475,0.063 4.848,-3.85 9.718,-8.698 4.87,-4.847 9.139,-8.528 9.487,-8.18 0.908,0.908 -3.758,6.725 -9.837,12.265 a 882.666,882.666 0 0 0 -11.396,10.633 c -3.39,3.226 -6.835,5.865 -7.656,5.865 -0.82,0 -3.447,-1.605 -5.836,-3.567 z m -88.973,0.817 c -1.243,-1.586 -1.208,-1.621 0.378,-0.378 1.666,1.307 2.195,2.128 1.372,2.128 -0.207,0 -0.995,-0.787 -1.75,-1.75 z m 69.516,-2.35 c -2.139,-1.704 -5.576,-3.963 -7.638,-5.02 -2.063,-1.056 -3.75,-2.394 -3.75,-2.973 0,-0.579 1.186,-0.12 2.635,1.02 1.449,1.14 3.362,2.09 4.25,2.109 1.665,0.037 5.66,3.132 8.02,6.214 1.967,2.569 0.868,2.147 -3.518,-1.35 z m -63.824,0.393 c -0.542,-1.425 -0.428,-1.54 0.56,-0.56 0.684,0.679 0.99,1.486 0.683,1.793 -0.308,0.308 -0.867,-0.247 -1.243,-1.233 z m 217.889,-2.139 c 2.174,-2.285 4.108,-4.154 4.297,-4.154 0.84,0 -3.382,4.79 -5.693,6.46 -1.507,1.09 -0.934,0.142 1.396,-2.306 z M 39.637,120.911 c -2.555,-2.248 -4.39,-4.5 -4.08,-5.003 0.311,-0.504 1.72,0.455 3.129,2.13 1.41,1.676 2.784,2.826 3.054,2.556 0.27,-0.27 -0.899,-2.177 -2.597,-4.237 -3.85,-4.67 -3.453,-5.383 0.788,-1.421 1.9,1.774 3.077,3.762 2.888,4.876 -0.175,1.034 0.299,2.625 1.054,3.534 2.347,2.829 0.606,1.828 -4.236,-2.435 z m 95.287,1.453 c -2.163,-2.352 -2.2,-2.519 -0.342,-1.554 2.487,1.29 5.057,4.19 3.715,4.19 -0.522,0 -2.04,-1.186 -3.373,-2.636 z M 60.5,122.117 C 57.186,120.045 57.052,119.916 45.12,107.335 33.957,95.57 34,95.621 34,93.38 34,90.828 56.385,68.887 60.868,67.044 c 2.606,-1.071 3.738,-1.12 5,-0.212 0.898,0.645 2.532,1.574 3.632,2.064 1.1,0.49 5.629,4.517 10.064,8.948 8.853,8.844 13.97,16.896 13.053,20.544 -1.06,4.227 -24.748,25.626 -28.347,25.608 -0.424,-0.002 -2.12,-0.848 -3.77,-1.88 z m 8,-2.991 C 74.104,115.638 90,99.052 90,96.693 90,93.563 83.776,84.695 77.137,78.367 c -5.427,-5.174 -8.843,-7.23 -6.01,-3.617 1.243,1.584 1.208,1.62 -0.366,0.387 -0.956,-0.75 -1.514,-1.728 -1.238,-2.174 0.275,-0.445 -0.891,-1.801 -2.592,-3.012 -2.783,-1.982 -3.36,-2.065 -5.762,-0.827 -1.468,0.757 -7.884,6.6 -14.258,12.985 L 35.322,93.72 39.81,98.928 c 3.359,3.899 4.712,4.878 5.38,3.891 0.696,-1.027 0.829,-0.978 0.602,0.223 -0.355,1.876 15.875,17.96 18.117,17.955 0.875,-0.002 2.941,-0.844 4.591,-1.87 z m -3.337,-1.724 C 63.973,116.568 63,115.392 63,114.788 c 0,-0.604 0.872,-0.31 1.937,0.655 1.065,0.964 2.415,1.457 3,1.096 0.585,-0.361 1.063,-0.207 1.063,0.343 0,1.83 -1.648,2.053 -3.837,0.52 z M 73,111.557 c 0,-1.422 3.64,-4.557 5.29,-4.557 0.466,0 -0.115,1.35 -1.29,3 -2.295,3.224 -4,3.887 -4,1.557 z m 7.959,-9.365 c 1.243,-1.819 2.524,-3.043 2.847,-2.72 0.323,0.324 -0.693,1.812 -2.26,3.308 L 78.7,105.5 Z M 84.5,94 c -0.34,-0.55 -0.141,-1 0.441,-1 0.582,0 1.059,0.45 1.059,1 0,0.55 -0.198,1 -0.441,1 -0.243,0 -0.72,-0.45 -1.059,-1 z M 78.25,85.011 C 76.463,83.921 75,82.813 75,82.548 c 0,-0.264 1.575,0.449 3.5,1.585 1.925,1.135 3.5,2.245 3.5,2.466 0,0.64 -0.316,0.506 -3.75,-1.588 z m -4.809,-6.48 c -1.067,-0.807 -1.434,-1.482 -0.813,-1.5 0.62,-0.017 1.687,0.644 2.372,1.469 1.58,1.905 0.935,1.918 -1.559,0.032 z M 59,73.182 c 0,-1.208 1.897,-2.617 2.59,-1.924 0.252,0.252 -0.228,1.027 -1.066,1.723 C 59.574,73.77 59,73.846 59,73.182 Z m 39,43.941 c 0,-0.482 0.675,-1.437 1.5,-2.122 1.628,-1.351 1.832,-1.028 0.893,1.418 -0.643,1.675 -2.393,2.19 -2.393,0.704 z m 26.476,-4.395 c -7.974,-6.876 -12.305,-11.685 -12.056,-13.386 0.223,-1.514 0.949,-1.767 2.855,-0.995 0.95,0.385 0.944,0.514 -0.025,0.575 -0.688,0.043 -1.25,0.556 -1.25,1.138 0,0.582 0.445,0.784 0.989,0.448 0.543,-0.336 0.763,-0.023 0.487,0.695 -0.44,1.146 5.738,7.367 13.524,13.619 1.375,1.104 2.264,2.244 1.976,2.533 -0.287,0.29 -3.212,-1.793 -6.5,-4.627 z M 150,114.069 c 0,-1.16 4.002,-5.069 5.189,-5.069 1.677,0 0.71,1.699 -2.189,3.842 -1.65,1.22 -3,1.772 -3,1.227 z M 156,107 c 0,-0.55 0.45,-1 1,-1 0.55,0 1,0.45 1,1 0,0.55 -0.45,1 -1,1 -0.55,0 -1,-0.45 -1,-1 z m 114.053,-2.655 c -1.83,-2.104 -2.064,-3.025 -1.233,-4.848 0.731,-1.606 0.689,-2.616 -0.147,-3.521 -0.904,-0.978 -0.886,-1.107 0.077,-0.564 1.784,1.008 1.6,-2.372 -0.237,-4.328 -0.818,-0.871 -3.326,-3.834 -5.574,-6.584 a 676.815,676.815 0 0 0 -7.763,-9.303 c -2.022,-2.366 -4.082,-5.179 -4.579,-6.25 C 250.101,67.877 249.306,67 248.83,67 c -1.776,0 -9.828,-9.428 -9.76,-11.429 0.06,-1.735 0.181,-1.797 0.75,-0.385 0.374,0.927 3.38,4.556 6.68,8.064 12.777,13.582 24.994,28.018 24.857,29.374 -0.112,1.116 1.204,1.361 6.155,1.148 3.464,-0.15 6.089,0.066 5.834,0.478 -0.255,0.413 -2.31,0.75 -4.566,0.75 -3.335,0 -4.625,0.586 -6.902,3.137 l -2.8,3.136 2.21,1.724 c 1.217,0.947 3.66,1.93 5.428,2.185 2.716,0.39 3.947,-0.21 7.923,-3.86 5.213,-4.787 5.361,-4.87 5.361,-3.034 0,0.709 -1.913,2.868 -4.25,4.798 -3.359,2.773 -5.213,3.545 -8.844,3.683 -3.822,0.145 -4.975,-0.263 -6.853,-2.424 z M 121,103 c 0,-0.55 0.477,-1 1.059,-1 0.582,0 0.78,0.45 0.441,1 -0.34,0.55 -0.816,1 -1.059,1 -0.243,0 -0.441,-0.45 -0.441,-1 z M 96.012,100.977 C 97.252,98.66 98,98.44 98,100.393 c 0,0.766 -0.685,1.656 -1.523,1.978 -1.243,0.476 -1.328,0.22 -0.465,-1.394 z m 44.495,1.034 c -0.35,-0.566 0.051,-0.734 0.941,-0.393 1.732,0.665 2.05,1.382 0.611,1.382 -0.518,0 -1.216,-0.445 -1.552,-0.989 z M 259.5,101.185 c -3.295,-1.034 -4.318,-1.686 -3,-1.912 2.418,-0.416 10.253,2.155 8.933,2.931 -0.513,0.302 -3.183,-0.156 -5.933,-1.019 z M 166.957,97.537 C 164.6,93.683 156.855,86.035 147.176,78 c -4.97,-4.125 -9.067,-7.838 -9.106,-8.25 -0.038,-0.412 0.785,-0.75 1.83,-0.75 1.045,0 4.724,2.925 8.176,6.5 3.451,3.575 6.722,6.5 7.268,6.5 1.603,0 12.647,12.288 13.3,14.797 0.835,3.213 0.04,3.563 -1.687,0.74 z M 209.5,97 c 0.34,-0.55 0.816,-1 1.059,-1 0.243,0 0.441,0.45 0.441,1 0,0.55 -0.477,1 -1.059,1 -0.582,0 -0.78,-0.45 -0.441,-1 z m 45.224,0.346 c 0.916,-0.37 0.82,-1.113 -0.385,-2.952 -1.937,-2.956 -0.933,-4.56 1.14,-1.821 2.027,2.68 1.908,5.444 -0.229,5.348 -1.002,-0.045 -1.227,-0.29 -0.526,-0.575 z m 5.526,-2.498 c -2.337,-1.64 -4.25,-3.643 -4.25,-4.454 0,-1.098 0.318,-1.193 1.25,-0.374 0.688,0.604 2.712,1.965 4.5,3.025 1.788,1.059 3.25,2.607 3.25,3.44 0,1.835 0.4,1.973 -4.75,-1.637 z M 19,91.918 C 19,88.502 25.351,79 27.634,79 28.307,79 30.528,77.425 32.569,75.5 35.736,72.513 38,71.179 38,72.3 c 0,0.164 -3.149,2.922 -6.998,6.128 -7.485,6.235 -11.385,11.41 -10.446,13.858 0.32,0.831 0.1,1.809 -0.488,2.172 C 19.396,94.874 19,93.933 19,91.918 Z m 84.036,1.887 c 0.845,-0.718 1.398,-1.98 1.227,-2.805 -0.17,-0.825 0.714,-2.115 1.964,-2.868 1.766,-1.062 1.994,-1.073 1.023,-0.05 -0.688,0.725 -1.25,2.112 -1.25,3.083 0,0.97 -1.012,2.255 -2.25,2.855 -1.896,0.919 -2.008,0.885 -0.714,-0.215 z m 4.31,-1.348 c -0.9,-2.346 0.07,-2.62 1.45,-0.412 0.773,1.238 0.84,1.955 0.181,1.955 -0.572,0 -1.306,-0.694 -1.632,-1.543 z m 86.085,-0.38 c 0.957,-1.058 3.544,-3.174 5.748,-4.701 2.205,-1.528 5.61,-4.246 7.57,-6.04 1.959,-1.794 3.829,-3.098 4.156,-2.897 0.327,0.2 1.72,-1.157 3.095,-3.018 2.507,-3.393 9.074,-7.445 11.308,-6.978 2.546,0.533 6.53,2.485 7.163,3.51 0.366,0.593 2.19,1.715 4.055,2.493 3.573,1.494 11.472,8.813 13.403,12.422 2.061,3.851 -0.702,2.276 -3.956,-2.256 -1.852,-2.579 -4.816,-5.14 -7.186,-6.208 -2.22,-1 -5.616,-3.076 -7.548,-4.612 -5.128,-4.075 -10.185,-3.87 -13.916,0.562 -1.553,1.845 -4.167,4.207 -5.81,5.25 -1.643,1.043 -4.735,3.584 -6.87,5.646 -2.137,2.063 -4.426,3.75 -5.09,3.75 -0.662,0 -2.261,1.125 -3.553,2.5 -2.726,2.901 -5.17,3.45 -2.57,0.577 z m 23.684,0.083 c 2.64,-2.037 8.94,-4.438 9.686,-3.692 0.262,0.262 -0.824,0.966 -2.412,1.565 -1.59,0.6 -4.196,1.737 -5.793,2.528 -3.9,1.933 -4.349,1.812 -1.48,-0.401 z M 178.727,91 C 177.329,89.9 175.773,89 175.27,89 173.804,89 159,74.816 159,73.411 c 0,-0.7 -1.35,-2.236 -3,-3.411 -1.89,-1.346 -3,-3.014 -3,-4.51 0,-1.304 -0.45,-2.65 -1,-2.99 -2.112,-1.305 -0.805,-4.254 4.33,-9.773 2.932,-3.15 5.6,-5.727 5.929,-5.727 0.329,0 2.768,-2.08 5.42,-4.622 9.095,-8.719 16.83,-12.6 18.791,-9.426 0.324,0.523 4.963,4.236 10.31,8.25 12.233,9.185 18.18,15.388 18.203,18.987 0.02,3.139 -3.912,7.946 -16.686,20.402 C 191.095,87.614 183.88,93 181.675,93 c -0.223,0 -1.55,-0.9 -2.948,-2 z M 196.38,79.242 c 14.883,-14.422 16.64,-16.53 16.115,-19.333 -0.248,-1.325 -3.321,-5.109 -6.829,-8.409 -5.373,-5.055 -9.458,-8.317 -21.235,-16.954 -1.895,-1.39 -5.793,0.955 -13.397,8.057 -3.594,3.356 -6.993,6.281 -7.553,6.5 -0.561,0.218 -3.113,2.656 -5.673,5.418 -4.621,4.986 -4.645,5.048 -3.542,9.182 0.68,2.545 1.81,4.345 2.91,4.633 0.99,0.259 2.204,1.533 2.698,2.833 1.122,2.95 14.54,16.128 16.753,16.453 0.9,0.131 2.138,0.75 2.754,1.375 2.49,2.528 6.988,-0.053 17,-9.755 z m -18.925,6.303 C 175.32,83.411 174.22,81 175.38,81 c 0.21,0 1.583,1.575 3.051,3.5 3.093,4.055 2.58,4.603 -0.977,1.045 z M 189,83.622 c 0,-0.207 0.787,-0.995 1.75,-1.75 1.586,-1.243 1.621,-1.208 0.378,0.378 -1.307,1.666 -2.128,2.195 -2.128,1.372 z m 4,-4.377 c 0,-0.55 0.675,-1.56 1.5,-2.245 0.837,-0.694 1.5,-0.803 1.5,-0.245 0,0.55 -0.675,1.56 -1.5,2.245 -0.837,0.694 -1.5,0.803 -1.5,0.245 z M 171.5,44 c 0.34,-0.55 0.816,-1 1.059,-1 0.243,0 0.441,0.45 0.441,1 0,0.55 -0.477,1 -1.059,1 -0.582,0 -0.78,-0.45 -0.441,-1 z m 64.25,47.284 C 234.238,91.054 233,90.257 233,89.51 c 0,-1.111 0.543,-1.086 3,0.14 1.65,0.823 3,1.689 3,1.923 0,0.235 -0.113,0.36 -0.25,0.277 -0.138,-0.082 -1.488,-0.337 -3,-0.566 z M 9.5,89.792 C 7.402,88.589 4.929,85.738 5.493,85.173 c 0.74,-0.74 5.397,-0.83 5.21,-0.1 -0.112,0.432 0.697,1.5 1.797,2.372 1.925,1.526 1.888,1.565 -1,1.047 -2.634,-0.472 -2.726,-0.417 -0.75,0.453 1.238,0.545 2.25,1.23 2.25,1.523 0,0.83 -1.316,0.577 -3.5,-0.676 z m 219.25,-0.454 c 0.688,-0.278 1.813,-0.278 2.5,0 0.688,0.277 0.125,0.504 -1.25,0.504 -1.375,0 -1.938,-0.227 -1.25,-0.504 z M 94.852,85.243 C 87.275,77.47 83.132,73.369 78.636,69.195 76.086,66.827 74,64.45 74,63.912 74,62.805 91.079,46 92.203,46 c 0.4,0 2.856,-1.35 5.458,-3 2.602,-1.65 6,-3 7.553,-3 4.206,0 11.822,4.423 15.786,9.167 1.925,2.304 4.737,5.475 6.25,7.046 1.512,1.57 2.75,3.277 2.75,3.792 0,2.043 -28.073,29 -30.188,28.988 -0.722,-0.004 -2.954,-1.692 -4.96,-3.75 z M 104,82.91 c 7.015,-6.128 23,-22.24 23,-23.183 0,-0.532 -3.628,-4.513 -8.062,-8.847 -7.48,-7.311 -8.364,-7.88 -12.25,-7.87 -5.087,0.01 -11.835,3.755 -19.688,10.924 -3.025,2.761 -5.786,5.031 -6.135,5.043 -0.35,0.013 -1.394,1.182 -2.323,2.599 -1.666,2.543 -1.64,2.615 2.135,5.744 4.63,3.838 9.574,8.761 14.5,14.44 2.022,2.332 4.047,4.233 4.5,4.224 0.453,-0.009 2.398,-1.392 4.323,-3.074 z m -3.696,-6.644 c -1.758,-2.039 -2.968,-3.935 -2.69,-4.213 0.278,-0.278 1.941,1.189 3.696,3.26 l 3.19,3.766 7.887,-7.54 c 10.53,-10.065 12.01,-9.685 1.795,0.461 -4.43,4.4 -8.645,7.994 -9.368,7.987 -0.723,-0.008 -2.752,-1.682 -4.51,-3.72 z M 92.5,68 c -1.58,-1.65 -2.41,-3 -1.842,-3 1.027,0 3.393,2.367 4.749,4.75 1.166,2.05 0.144,1.435 -2.907,-1.75 z m 146,20 c -0.34,-0.55 -0.168,-1 0.382,-1 0.55,0 1.278,0.45 1.618,1 0.34,0.55 0.168,1 -0.382,1 -0.55,0 -1.278,-0.45 -1.618,-1 z m -18,-1 c 0.34,-0.55 1.068,-1 1.618,-1 0.55,0 0.722,0.45 0.382,1 -0.34,0.55 -1.068,1 -1.618,1 -0.55,0 -0.722,-0.45 -0.382,-1 z M 11.24,83.014 C 9.483,80.2 9.535,80.114 14.25,77.974 18.802,75.907 23.809,75.185 21,77 c -0.825,0.533 -2.288,0.976 -3.25,0.985 -2.439,0.021 -5.826,3.654 -5.12,5.492 0.821,2.14 0.083,1.894 -1.39,-0.463 z M 249.5,84 c -0.34,-0.55 0.084,-1 0.941,-1 0.857,0 1.559,0.45 1.559,1 0,0.55 -0.423,1 -0.941,1 -0.518,0 -1.22,-0.45 -1.559,-1 z M 6.192,82.14 C 5.335,81.596 5.104,80.309 5.522,78.405 6.01,76.192 5.908,75.857 5.096,77 4.51,77.825 4.024,78.126 4.016,77.67 3.993,76.46 22.14,55.807 22.718,56.384 c 0.268,0.269 -2.934,4.333 -7.115,9.033 -7.356,8.267 -8.254,10.097 -7.773,15.833 0.167,1.996 0.134,2.014 -1.638,0.89 z m 265.372,-1.847 c -0.542,-1.425 -0.428,-1.54 0.56,-0.56 0.684,0.679 0.99,1.486 0.683,1.793 -0.308,0.308 -0.867,-0.247 -1.243,-1.233 z M 119.186,77.945 C 116.564,76.893 117.125,75 120.059,75 c 1.274,0 1.941,0.687 1.941,2 0,1.1 -0.113,1.971 -0.25,1.937 -0.138,-0.035 -1.291,-0.481 -2.564,-0.992 z M 243.384,76.25 a 528.866,528.866 0 0 0 -4.433,-4.764 C 236.681,69.088 235.191,63 236.875,63 c 0.619,0 1.125,1.317 1.125,2.927 0,1.908 0.845,3.593 2.427,4.837 3.567,2.806 7.93,8.236 6.616,8.236 -0.623,0 -2.27,-1.238 -3.66,-2.75 z m -12.979,-0.5 -1.905,-2.25 2.25,1.905 c 2.114,1.79 2.705,2.595 1.905,2.595 -0.19,0 -1.202,-1.012 -2.25,-2.25 z M 23,76.57 c 0,-0.69 9.202,-6.702 9.62,-6.284 C 33.17,70.837 25.313,77 24.059,77 23.476,77 23,76.807 23,76.57 Z M 47.32,63.914 c 1.806,-2.756 15.263,-11.22 16.946,-10.659 0.59,0.197 -1.142,1.636 -3.847,3.198 -2.706,1.562 -7.125,4.438 -9.82,6.39 -4.313,3.123 -4.707,3.252 -3.278,1.07 z m 178.21,0.135 C 224.667,62.652 225.767,61 227.559,61 c 1.836,0 1.85,1.415 0.03,2.926 -0.965,0.8 -1.616,0.84 -2.059,0.123 z M 45.5,58 c 0.34,-0.55 0.816,-1 1.059,-1 0.243,0 0.441,0.45 0.441,1 0,0.55 -0.477,1 -1.059,1 -0.582,0 -0.78,-0.45 -0.441,-1 z m 187,0 c -0.34,-0.55 -0.141,-1 0.441,-1 0.582,0 1.059,0.45 1.059,1 0,0.55 -0.198,1 -0.441,1 -0.243,0 -0.72,-0.45 -1.059,-1 z m -89.486,-2.172 c -2.497,-0.942 -12.918,-9.387 -16.357,-13.255 -1.76,-1.98 -1.814,-1.984 -1.197,-0.103 0.355,1.083 0.284,1.608 -0.157,1.167 -0.897,-0.897 -1.211,-5.698 -0.337,-5.158 0.306,0.189 1.425,-0.291 2.486,-1.068 1.072,-0.784 1.37,-1.411 0.668,-1.411 -0.912,0 -0.845,-0.417 0.237,-1.5 0.825,-0.825 1.805,-1.5 2.179,-1.5 0.373,0 0.419,0.675 0.102,1.5 -0.781,2.036 1.26,1.91 7.506,-0.463 8.171,-3.105 30.142,-2.807 32.841,0.445 2.086,2.514 -0.406,4.899 -17.485,16.739 -6.886,4.773 -8.346,5.415 -10.486,4.607 z m 11.747,-8.446 C 166.113,40.013 170.354,36.347 168.731,35.304 166.923,34.142 143,33.609 143,34.73 c 0,0.514 -3.382,1.777 -7.515,2.807 -4.134,1.029 -7.391,2.245 -7.239,2.701 0.616,1.847 15.344,13.671 16.515,13.26 0.694,-0.244 5.194,-2.996 10,-6.116 z m -5.228,0.67 c -0.358,-0.578 0.05,-1.052 0.908,-1.052 0.857,0 1.562,-0.338 1.566,-0.75 0.01,-1.187 6.784,-5.486 8.004,-5.08 0.605,0.202 -1.063,1.934 -3.706,3.848 -5.944,4.307 -5.977,4.322 -6.772,3.035 z m 81.134,6.281 C 230.3,53.967 230,53.202 230,52.633 c 0,-0.626 0.466,-0.567 1.183,0.15 0.651,0.651 0.951,1.416 0.667,1.7 -0.284,0.285 -0.817,0.217 -1.183,-0.15 z m 2.866,-1.89 c -1.953,-1.81 -3.323,-2.327 -4.868,-1.837 -1.904,0.605 -1.994,0.495 -0.785,-0.962 0.75,-0.904 1.872,-1.626 2.492,-1.603 1.818,0.065 7.883,5.684 6.835,6.331 -0.525,0.325 -2.179,-0.543 -3.674,-1.929 z M 120.507,45.011 c -0.35,-0.566 0.051,-0.734 0.941,-0.393 1.732,0.665 2.05,1.382 0.611,1.382 -0.518,0 -1.216,-0.445 -1.552,-0.989 z m 94.145,-3.626 c -2.666,-1.388 -4.623,-2.747 -4.35,-3.021 0.54,-0.539 10.698,4.355 10.698,5.153 0,0.897 -1.481,0.4 -6.348,-2.132 z M 108.5,37 c -1.928,-0.829 -1.921,-0.862 0.191,-0.93 1.205,-0.038 2.47,0.38 2.809,0.93 0.731,1.183 -0.248,1.183 -3,0 z M 89,35 c 0,-0.55 0.477,-1 1.059,-1 0.582,0 0.78,0.45 0.441,1 -0.34,0.55 -0.816,1 -1.059,1 C 89.198,36 89,35.55 89,35 Z m 9.5,-1 c 0.34,-0.55 1.068,-1 1.618,-1 0.55,0 0.722,0.45 0.382,1 -0.34,0.55 -1.068,1 -1.618,1 -0.55,0 -0.722,-0.45 -0.382,-1 z m 106,0 c -0.34,-0.55 -0.168,-1 0.382,-1 0.55,0 1.278,0.45 1.618,1 0.34,0.55 0.168,1 -0.382,1 -0.55,0 -1.278,-0.45 -1.618,-1 z M 200,33.28 c -3.667,-0.659 -4.596,-2.021 -1.02,-1.496 1.675,0.246 3.29,0.845 3.591,1.331 0.301,0.487 0.408,0.824 0.238,0.749 -0.17,-0.075 -1.434,-0.338 -2.809,-0.585 z M 99.017,30.327 c 0.72,-0.353 0.648,-1.03 -0.225,-2.088 -1.078,-1.306 -1.044,-1.483 0.208,-1.07 1.828,0.605 1.99,3.064 0.225,3.422 -0.701,0.142 -0.795,0.023 -0.208,-0.264 z m 5.867,-1.047 c 1.311,-0.937 3.058,-1.802 3.88,-1.923 2.103,-0.308 0.304,1.038 -3.264,2.444 l -3,1.182 z M 94,29.622 c 0,-0.207 0.685,-0.946 1.523,-1.641 1.273,-1.057 1.42,-0.995 0.893,0.378 C 95.878,29.76 94,30.743 94,29.622 Z m 20.75,-3.284 c 0.688,-0.278 1.813,-0.278 2.5,0 0.688,0.277 0.125,0.504 -1.25,0.504 -1.375,0 -1.938,-0.227 -1.25,-0.504 z m 7.5,-1.027 c 0.963,-0.252 2.538,-0.252 3.5,0 0.963,0.251 0.175,0.457 -1.75,0.457 -1.925,0 -2.712,-0.206 -1.75,-0.457 z m 48.25,-3.788 c -4.075,-1.048 -4.445,-1.304 -2,-1.385 1.65,-0.055 5.25,0.527 8,1.292 3.942,1.097 4.365,1.39 2,1.385 -1.65,-0.004 -5.25,-0.585 -8,-1.292 z m 42.36,-5.572 -2.36,-2.05 3.25,1.575 c 3.198,1.55 4.109,2.524 2.36,2.524 -0.488,0 -1.95,-0.922 -3.25,-2.05 z M 217,16 c -1.925,-1.052 -6.341,-2.88 -9.814,-4.06 -8.266,-2.81 -7.296,-3.673 1.184,-1.054 7.168,2.214 12.154,4.533 13.126,6.106 0.92,1.488 -0.56,1.162 -4.496,-0.991 z M 99,9.608 c 0,-0.216 0.698,-0.661 1.552,-0.989 0.89,-0.341 1.291,-0.173 0.94,0.393 C 100.906,9.962 99,10.418 99,9.608 Z M 169.605,6.984 C 159.44,3.991 155.785,2.661 159.75,3.396 c 1.238,0.23 2.25,0.038 2.25,-0.425 0,-0.464 -1.463,-1.025 -3.25,-1.247 -1.787,-0.221 0.125,-0.47 4.25,-0.551 4.125,-0.082 9.975,0.516 13,1.328 3.025,0.812 7.075,1.507 9,1.545 4.153,0.08 10.216,2.044 10.674,3.455 0.178,0.55 -1.813,1.115 -4.425,1.256 -2.612,0.141 -6.324,0.455 -8.249,0.699 -2.127,0.269 -7.382,-0.701 -13.395,-2.472 z m 18.312,-0.625 c 0.229,-0.197 -1.571,-0.378 -4,-0.402 C 181.487,5.933 177.7,5.53 175.5,5.06 c -9.407,-2.007 -10.472,-1.896 -3,0.315 6.939,2.052 13.675,2.482 15.417,0.984 z M 110.193,5.571 c 7.437,-2.217 25.606,-5.105 26.5,-4.211 0.24,0.241 -2.854,0.928 -6.878,1.527 -4.023,0.599 -11.14,2.006 -15.815,3.127 -11.246,2.698 -13.47,2.439 -3.807,-0.443 z"
         style="fill:#000000;stroke:#000000;stroke-width:2.88982;stroke-dasharray:none;stroke-opacity:1"
         transform="matrix(2.5855,0,0,2.60518,167.826,293.143)"
         id="path36" /></g></g><defs
     id="defs73"><clipPath
       id="a"><path
         d="m 680,521 h 897 v 736 H 680 Z m 0,0"
         id="path40" /></clipPath><clipPath
       id="b"><path
         d="m 713.465,485.262 896.55,73.984 -73.492,890.574 -896.55,-73.984 z m 0,0"
         id="path43" /></clipPath><clipPath
       id="c"><path
         d="m 713.465,485.262 896.55,73.984 -73.492,890.574 -896.55,-73.984 z m 0,0"
         id="path46" /></clipPath><clipPath
       id="d"><path
         d="m 1360,1252 h 122 v 100 h -122 z m 0,0"
         id="path49" /></clipPath><clipPath
       id="e"><path
         d="m 713.465,485.262 896.55,73.984 -73.492,890.574 -896.55,-73.984 z m 0,0"
         id="path52" /></clipPath><clipPath
       id="f"><path
         d="m 713.465,485.262 896.55,73.984 -73.492,890.574 -896.55,-73.984 z m 0,0"
         id="path55" /></clipPath><clipPath
       id="g"><path
         d="m 1412,1386 h 62 v 57 h -62 z m 0,0"
         id="path58" /></clipPath><clipPath
       id="h"><path
         d="m 713.465,485.262 896.55,73.984 -73.492,890.574 -896.55,-73.984 z m 0,0"
         id="path61" /></clipPath><clipPath
       id="i"><path
         d="m 713.465,485.262 896.55,73.984 -73.492,890.574 -896.55,-73.984 z m 0,0"
         id="path64" /></clipPath><radialGradient
       xlink:href="#k"
       id="j"
       cx="198.10699"
       cy="174.95399"
       r="95.584999"
       fx="198.10699"
       fy="174.95399"
       gradientTransform="matrix(1,0,0,0.9019,0,17.162)"
       gradientUnits="userSpaceOnUse" /><linearGradient
       id="k"><stop
         offset="0"
         style="stop-color:#bb4041;stop-opacity:1"
         id="stop68" /><stop
         offset="1"
         style="stop-color:#d12a2b;stop-opacity:1"
         id="stop70" /></linearGradient></defs></svg>
