<?xml version="1.0" encoding="UTF-8" standalone="no"?>
<svg
   xml:space="preserve"
   width="1500"
   height="1500"
   preserveAspectRatio="xMidYMid"
   version="1.0"
   viewBox="0 0 1125 1125"
   id="svg75"
   sodipodi:docname="icon.svg"
   inkscape:version="1.2.1 (9c6d41e410, 2022-07-14)"
   xmlns:inkscape="http://www.inkscape.org/namespaces/inkscape"
   xmlns:sodipodi="http://sodipodi.sourceforge.net/DTD/sodipodi-0.dtd"
   xmlns:xlink="http://www.w3.org/1999/xlink"
   xmlns="http://www.w3.org/2000/svg"
   xmlns:svg="http://www.w3.org/2000/svg"><sodipodi:namedview
     id="namedview77"
     pagecolor="#ffffff"
     bordercolor="#666666"
     borderopacity="1.0"
     inkscape:showpageshadow="2"
     inkscape:pageopacity="0.0"
     inkscape:pagecheckerboard="0"
     inkscape:deskcolor="#d1d1d1"
     showgrid="false"
     inkscape:zoom="0.5148917"
     inkscape:cx="855.51972"
     inkscape:cy="872.99913"
     inkscape:window-width="1712"
     inkscape:window-height="894"
     inkscape:window-x="0"
     inkscape:window-y="0"
     inkscape:window-maximized="1"
     inkscape:current-layer="g38" /><g
     clip-path="url(#a)"
     transform="translate(-674.07 -513.574) scale(1.09599)"
     id="g8"><g
       clip-path="url(#b)"
       style="fill:#6798c0;fill-opacity:1;stroke:none;stroke-width:.99975;stroke-dasharray:none"
       id="g6"><g
         clip-path="url(#c)"
         style="fill:#6798c0;fill-opacity:1;stroke:none;stroke-width:.99975;stroke-dasharray:none"
         id="g4"><path
           fill="#ffcf0f"
           d="M1179.21 523.77c-143.003-14.348-261.472 35.855-375.73 116.82-142.546 103.129-165.91 351.84-45.902 484.277 157.43 176.922 630.89 182.52 774.774-25.258 111.066-161.515-4.961-417.234-169.559-493.925-53.27-26.645-110.148-60.633-167.16-76.325l-16.414-5.578"
           style="fill:#6798c0;fill-opacity:1;stroke:none;stroke-width:.99975;stroke-dasharray:none"
           id="path2" /></g></g></g><g
     clip-path="url(#d)"
     style="fill:#6798c0;fill-opacity:1;stroke:none;stroke-width:.99975;stroke-dasharray:none"
     transform="translate(-674.07 -513.574) scale(1.09599)"
     id="g16"><g
       clip-path="url(#e)"
       style="fill:#6798c0;fill-opacity:1;stroke:none;stroke-width:.99975;stroke-dasharray:none"
       id="g14"><g
         clip-path="url(#f)"
         style="fill:#6798c0;fill-opacity:1;stroke:none;stroke-width:.99975;stroke-dasharray:none"
         id="g12"><path
           fill="#ffcf0f"
           d="M1428.2 1252.574c-19.345-1.941-35.364 4.848-50.825 15.793-19.273 13.945-22.434 47.578-6.191 65.492 21.273 23.93 85.308 24.668 104.77-3.418 15.019-21.836-.677-56.414-22.93-66.785-7.204-3.605-14.895-8.21-22.606-10.324l-2.219-.758"
           style="fill:#6798c0;fill-opacity:1;stroke:none;stroke-width:.99975;stroke-dasharray:none"
           id="path10" /></g></g></g><g
     clip-path="url(#g)"
     style="fill:#6798c0;fill-opacity:1;stroke:none;stroke-width:.99975;stroke-dasharray:none"
     transform="translate(-674.07 -513.574) scale(1.09599)"
     id="g24"><g
       clip-path="url(#h)"
       style="fill:#6798c0;fill-opacity:1;stroke:none;stroke-width:.99975;stroke-dasharray:none"
       id="g22"><g
         clip-path="url(#i)"
         style="fill:#6798c0;fill-opacity:1;stroke:none;stroke-width:.99975;stroke-dasharray:none"
         id="g20"><path
           fill="#ffcf0f"
           d="M1445.738 1442.328c9.684-.426 16.844-5.398 23.27-12.598 7.984-9.144 6-27.855-3.84-36.418-12.957-11.484-44.461-6.968-51.055 9.961-5.074 13.145 6.274 30.922 18.278 34.887 3.91 1.414 8.18 3.36 12.18 3.918l1.167.25"
           style="fill:#6798c0;fill-opacity:1;stroke:none;stroke-width:.99975;stroke-dasharray:none"
           id="path18" /></g></g></g><g
     style="display:inline;stroke:#000000;stroke-opacity:1;stroke-width:7.5;stroke-dasharray:none"
     id="g34"><path
       d="M10.48 66.234C30.401 48.53 44.302 34.84 60.49 25.08c24.384-14.702 50.072-21.269 78.584-23.548 32.01-2.56 67.078 3.826 101.95 27.675 16.692 11.417 32.374 28.95 48.202 49.602 4.672 3.932 9.153 7.66 9.37 11.94.178 3.508-2.768 7.48-8.649 11.46l-4.92 4.592-133.714 106.127c-17.323 13.383-18.5 11.538-31.054-1.318l-16.51-14.185-7.127-8.676-17.098-11.571-8.006-13.383-10.606-9.453-10.305-18.552-20.206-16.275-8.397-13.236-10.27-10.446c-12.76-9.89-14.322-18.04-1.255-29.6z"
       style="display:inline;fill:#f0ca4f;fill-opacity:0.996078;stroke:#000000;stroke-width:2.88981556;stroke-linecap:butt;stroke-linejoin:miter;stroke-opacity:1;stroke-dasharray:none"
       transform="matrix(2.5855 0 0 2.60518 167.826 293.143)"
       id="path26" /><path
       d="m-40.924 90.733 39.15.693c4.563 13.967 5.51 27.636.608 42.485-13.115.368-26.18.558-38.889-.544z"
       style="fill:#e8a62e;fill-opacity:0.996078;stroke:#000000;stroke-opacity:1;stroke-width:2.88981678;stroke-dasharray:none"
       transform="matrix(1.85546 -1.81428 1.80058 1.86958 167.824 293.141)"
       id="path28" /><path
       d="M75.07 64.221c7.098-7.057 15.873-13.92 23.824-20.88 3.834-2.49 7.919-3.248 12.513-.49 6.22 6.886 7.72 2.62 17.582 17.438L99.681 87.395Zm50.864-23.839 19.692-7.935c10.226-.882 19.035-.04 25.448 3.721l-25.97 20.093zm-59.151 92.905C72.42 120.03 82.99 109.68 95.315 105.6c13.002 6.845 24.656 14.565 31.48 28.636-7.982 11.32-11.845 21.232-25.853 28.613-13.186-8.055-22.817-19.663-34.16-29.56zm41.494-35.536c8.834-11.472 16.691-20.813 26.943-28.222.841.375 3.276.346 4.127 1.042 10.57 8.631 23.092 14.955 29.438 28.042-.019 1.344-.423 2.342-1.553 3.412-8.047 7.613-17.772 19.38-28.886 26.712-10.462-10.307-22.688-20.524-30.07-30.986zm44.636-35.936c-8.355-.405 17.846-22.134 30.279-28.324 13.002 6.845 22.711 12.43 30.603 28.993-8.203 11.029-18.11 19.798-29.942 30.039-15.429-8.108-26.448-16.799-30.94-30.708zm40.544 36.124c-2.38.97-1.178-4.527 1.568-6.237 11.315-7.048 17.85-17.316 29.134-22.79 13.002 6.845 24.797 14.671 32.567 27.974-7.981 11.32-11.755 24.876-25.762 32.256-17.166-7.82-30.848-21.03-37.507-31.203zm-80.482 72.009c3.024-6.767 8.865-10.393 19.764-23.574 13.003 6.845 29.561 16.516 36.384 30.586-7.981 11.32-11.845 21.232-25.852 28.613-9.917-6.406-23.346-21.432-31.179-26.81-4.84-3.323-.735-9.825.883-8.815z"
       style="fill:#e8a62e;fill-opacity:0.996078;stroke:#000000;stroke-opacity:1;stroke-width:2.88981556;stroke-dasharray:none"
       transform="matrix(2.5855 0 0 2.60518 167.826 293.143)"
       id="path30" /><path
       d="M109.471 204.088c1.583 19.618-12.94 45.233-4.044 50.75 6.195 8.282 22.366 4.081 35.093 4.19 6.4.903 11.811 1.572 16.694 2.086 13.248 1.396 21.637-.075 26.825-2.733 7.37-8.777 16.323-13.493 34.649-24.228 9.869-14.525 12.262-33.542 30.417-37.599 12.553-6.904 26.442-13.2 30.274-24.727 2.058-6.19-.276-13.605-2.178-23.985 7.32-14.029 28.419-31.01 7.46-38.98l-46.27-17.407c-9.608-5.722-18.845-1.732-27.942 5.899-7.319 14.782-22.693 14.357-37.527 14.953-17.169 5.408-29.533 14.5-40.326 32.935 4.757 7.106-6.988 28.647-13.916 44.142-1.087 7.861-4.446 12.33-9.209 14.704z"
       style="fill:url(#j);fill-opacity:1;stroke:#000000;stroke-width:2.88981556;stroke-linecap:butt;stroke-linejoin:miter;stroke-opacity:1;stroke-dasharray:none"
       transform="matrix(2.5855 0 0 2.60518 167.826 293.143)"
       id="path32" /></g><g
     style="display:inline;stroke:#000000;stroke-opacity:1;stroke-width:7.5;stroke-dasharray:none"
     id="g38"><path
       d="M112.469 261.002c-10.35-3.23-13.606-14.89-7.876-28.209 3.328-7.737 4.749-22.353 2.677-27.543-.713-1.788-1.746-3.25-2.296-3.25-.55 0-2.522-2.362-4.383-5.25-4.48-6.951-12.955-14.417-18.953-16.698-2.56-.973-8.73-8.777-11.93-15.087-.984-1.943-3.98-5.42-6.657-7.726-3.3-2.842-5.434-5.73-6.626-8.966-2.207-5.99-3.488-7.415-16.581-18.437-5.862-4.933-11.197-10.275-11.858-11.87-.66-1.595-1.873-3.458-2.695-4.14-.822-.681-2.965-3.539-4.763-6.349-1.797-2.81-4.724-6.205-6.503-7.543-1.78-1.339-5.43-4.684-8.113-7.434-4.762-4.882-4.877-5.145-4.894-11.171L1 75.158l6.573-7.33c8.032-8.954 14.73-15.289 23.927-22.63 3.85-3.073 9.634-7.947 12.853-10.832 7.804-6.992 31.704-20.075 39.209-21.462 3.098-.573 5.868-.808 6.154-.521.286.286-.77.774-2.348 1.086-6.484 1.279-12.39 3.726-20.199 8.371-9.822 5.842-12.026 7.732-3.857 3.308 6.257-3.39 7.146-3.698 6.186-2.145-.34.551-2.64 1.923-5.109 3.047C59.37 28.337 52 34.554 52 36.501c0 1.322-3.197 3.734-8.756 6.607-5.777 2.986-6.823 2.95-3.282-.114C41.866 41.347 43.774 40 44.2 40c.427 0 3.469-2.718 6.76-6.04 4.375-4.416 5.155-5.559 2.9-4.25-1.696.985-4.496 3.41-6.222 5.388-1.726 1.979-5.725 5.305-8.888 7.392C35.587 44.576 33 46.47 33 46.7c0 .23.563.094 1.25-.302.688-.396.16.477-1.174 1.94-1.334 1.464-2.909 2.652-3.5 2.64-.592-.012.049-.902 1.424-1.978s2.016-1.966 1.424-1.978c-1.143-.023-5.092 3.815-5.613 5.456-.171.538-.986 1.067-1.811 1.175-1.569.206-12.325 11.309-19.175 19.794-3.307 4.096-3.895 5.472-3.415 8 .979 5.163 1.153 5.567 3.38 7.844a380.802 380.802 0 0 1 4.792 5.02c2.61 2.79 4.794 3.052 2.512.302-.867-1.044-.887-1.623-.076-2.124 1.497-.925 2.263-.01 2.418 2.89.139 2.6 7.303 11.585 9.255 11.607 2.675.03 1.998-1.873-1.982-5.573-2.315-2.152-3.646-3.26-2.959-2.463.688.797 1.25 1.837 1.25 2.309 0 1.33-1.865-.138-3.094-2.435-.8-1.494-.801-1.877-.006-1.386.605.374 1.1.145 1.1-.509s1.983.557 4.406 2.691c4.872 4.29 6.097 8.38 2.51 8.38-1.222 0-1.91.517-1.666 1.25.23.688 1.054 1.25 1.833 1.25.78 0 1.429.45 1.443 1 .014.55.598 1.9 1.298 3 1.194 1.878 1.235 1.847.675-.5-.454-1.908-.005-1.569 1.9 1.432 1.372 2.162 2.229 4.361 1.904 4.887-.593.959.77 2.251 8.197 7.779 5.43 4.041 15.5 13.994 15.503 15.324.001.593 1.35 1.978 2.997 3.078 1.647 1.1 2.993 2.675 2.992 3.5-.001.928-.94.356-2.461-1.5-1.352-1.65-2.475-2.647-2.495-2.215-.076 1.66 3.59 6.442 9.162 11.952 3.191 3.156 5.802 6.188 5.802 6.738C73 166.457 80.28 177 81.303 177c.484 0 3.445 1.8 6.581 4 3.137 2.2 6.133 4.001 6.66 4.003.526.002 1.828 1.305 2.894 2.896 1.067 1.592 2.53 2.667 3.25 2.39.888-.34 1.312.392 1.312 2.263 0 3.762 8.942 12.302 10.314 9.85.633-1.13.007-2.663-2.216-5.43-1.704-2.12-3.098-4.185-3.098-4.588 0-1.29 4.943 3.86 5.555 5.789.92 2.9 2.105 1.358 4.509-5.864l2.219-6.669-2.628-2.07a674.579 674.579 0 0 1-5.107-4.07c-2.599-2.097-4.56-7.5-2.723-7.5.573 0 1.185 1.211 1.359 2.691.23 1.966 1.501 3.383 4.71 5.254 6.08 3.546 6.78 4.942 5.12 10.217-1.845 5.862-7.193 14.775-8.886 14.81-1.098.022-1.127.324-.145 1.507.93 1.12.96 2.247.122 4.65-.608 1.743-1.105 5.965-1.105 9.382 0 4.774-.699 7.754-3.018 12.87-3.71 8.18-4.202 15.508-1.303 19.391 5.04 6.75 9.304 7.686 26.404 5.8 5.55-.613 8.633-.484 11.5.482 2.154.726 8.642 1.627 14.417 2.003 9.685.63 9.452.654-3 .317-7.425-.2-15.975-.452-19-.558-3.025-.106-8.875.106-13 .47s-8.864.236-10.531-.284zm62.234-.052c2.312-.456 5.19-1.357 6.395-2.002 3.79-2.028 10.906-9.133 10.235-10.218-.353-.572-.181-.754.382-.406s2.607-.906 4.542-2.785c2.184-2.122 5.593-4.02 8.984-5.007 9.88-2.872 18.177-12.245 22.823-25.783 2.584-7.53 4.97-10.235 13.836-15.687 3.347-2.059 5.751-4.101 5.343-4.54-.409-.437-.068-.573.757-.3 3.09 1.022 25.556-12.089 28.553-16.663 2.71-4.137 3.524-9.53 2.331-15.454-.597-2.968-1.38-4.922-1.737-4.343-.358.58-.778-2.058-.932-5.861l-.282-6.915 4.524-4.836c2.488-2.66 4.19-5.204 3.783-5.654-.407-.449-.216-.517.425-.15 1.427.817 4.484-4.01 6.889-10.88 1.553-4.436 1.595-5.387.354-8-.824-1.737-3.106-3.795-5.504-4.966-2.261-1.104-3.907-2.552-3.673-3.231.416-1.212 8.703-7.229 10.07-7.311 1.293-.079 5.199-7.074 5.199-9.312 0-1.429-3.107-5.428-8.75-11.264-4.813-4.977-13.7-14.601-19.75-21.387-6.05-6.786-12.672-13.551-14.716-15.034-2.044-1.482-3.49-2.922-3.211-3.2.721-.722-9.078-9.353-15.573-13.717-10.068-6.765-10.88-6.527-1.25.368 5.446 3.899 7.33 6.177 2.5 3.022-6.651-4.344-10.73-7.7-10.471-8.616.153-.545-.635-1.229-1.75-1.52-1.922-.503-2.904-2.298-1.258-2.298 2.653 0 17.532 10.293 24.481 16.935 4.536 4.337 9.374 8.77 10.75 9.852 1.375 1.082 7.45 7.518 13.5 14.303 6.049 6.784 14.485 15.983 18.748 20.44 6.834 7.148 7.75 8.548 7.75 11.838 0 2.052-.659 5.005-1.464 6.563-1.675 3.238-7.057 8.069-8.99 8.069-.716 0-1.813.617-2.44 1.372-.903 1.088-.53 1.624 1.806 2.591 10.415 4.315 8.724 17.457-3.945 30.65-6.8 7.081-7.065 8.303-3.954 18.226 1.093 3.487 1.987 7.889 1.987 9.782 0 3.901-2.243 9.866-4.788 12.735-2.556 2.881-13.304 9.553-25.957 16.113-15.019 7.787-18.674 11.007-20.777 18.304-3.775 13.094-13.819 24.73-23.866 27.651-4.322 1.257-6.532 2.77-11.245 7.702-8.505 8.897-13.562 11.9-19.813 11.764l-5.054-.11ZM116 254.29c-2.886-1.06-5-3.62-5-6.054 0-2.255.285-2.405 3.5-1.845l7 1.218c1.925.336 3.5 1.046 3.5 1.58 0 .533-1.238.725-2.75.425s-4.5-.848-6.637-1.217l-3.887-.671 2.168 2.168c2.729 2.729 7.586 3.782 9.628 2.088 2.126-1.764 2.933-.58.954 1.399-1.586 1.586-5.496 2.005-8.476.91zm64.75-25.742c-.963-1.333-1.75-2.765-1.75-3.181 0-1.522 5.424-6.367 7.128-6.367.965 0 2.061-.497 2.436-1.104.833-1.347 8.362-4.85 10.436-4.856 1.334-.003-4.076 3.37-12.428 7.749-1.61.844-3.705 2.2-4.656 3.015-1.636 1.4-1.63 1.586.1 3.445 1.05 1.126 2.345 1.646 3.037 1.218.77-.476 1.04-.243.744.644-.763 2.29-3.183 2.02-5.047-.563zM200 228c0-.55.477-1 1.059-1s.78.45.441 1c-.34.55-.816 1-1.059 1s-.441-.45-.441-1zm-13.037-2.93c.568-1.062 2.325-2.851 3.904-3.976 3.509-2.498 8.519-4.527 7.631-3.091-.339.548-1.04.997-1.557.997-.955 0-3.099 1.682-7.33 5.75-2.871 2.76-4.03 2.9-2.648.32zM215 217.31c0-.55.9-1.815 2-2.81 1.1-.995 2-1.36 2-.81s-.9 1.815-2 2.81c-1.1.995-2 1.36-2 .81zm-76-4.417c0-.609.605-.875 1.345-.59 1.693.649 9.971-2.983 9.294-4.078-.275-.445.373-.876 1.44-.956 1.067-.08 3.311-1.123 4.988-2.317 1.676-1.193 3.286-1.933 3.576-1.643.942.942-10.803 9.473-13.893 10.09-4.491.9-6.75.73-6.75-.506zm-2.5-.893c-.34-.55-.141-1 .441-1s1.059.45 1.059 1-.198 1-.441 1-.72-.45-1.059-1zm78-1c.34-.55.816-1 1.059-1s.441.45.441 1-.477 1-1.059 1-.78-.45-.441-1zm-64.5-7.882c0-.55.45-1.278 1-1.618.55-.34 1-.168 1 .382s-.45 1.278-1 1.618c-.55.34-1 .168-1-.382zm-41.333-12.785c-.367-.366-.667-1.131-.667-1.7 0-.626.466-.567 1.183.15.651.651.951 1.416.667 1.7-.284.284-.817.217-1.183-.15zm-5.064-3.833c-1.044-.79-2.281-1.199-2.75-.909-1.067.66-1.083-.681-.027-2.343.58-.915 1.572-.442 3.672 1.75 2.977 3.107 2.433 4.021-.895 1.502zm-6.408-1.5c-1.113-2.668-2.352-4.427-11.603-16.484-3.249-4.235-6.445-7.906-7.101-8.158-.657-.252-4.24-4.479-7.963-9.393-3.722-4.914-7.233-8.647-7.802-8.295-.618.381-.732.148-.283-.578.414-.67.111-1.977-.673-2.905-1.65-1.951-5.87-9.187-5.358-9.187.292 0 11.98 15.02 16.549 21.27.803 1.098 3.278 3.83 5.5 6.069 2.221 2.24 4.502 4.992 5.069 6.116.566 1.125 1.662 2.045 2.436 2.045s1.763 1.35 2.199 3c.435 1.65 2.415 4.8 4.399 7 4.213 4.67 6.741 9.143 6.116 10.818-.243.65-.911.057-1.485-1.318zm160.555-1.692c-.963-.25-1.747-.984-1.743-1.631.009-1.478 6.076-5.677 8.201-5.677.872 0 2.981-1.59 4.688-3.535 1.707-1.944 3.104-3.15 3.104-2.68 0 1.701-5.657 7.137-10.029 9.635-2.459 1.406-3.85 2.561-3.089 2.568 4.3.037 16.118-11.693 16.118-16 0-1.887-.236-2.037-1.524-.968-1.998 1.658-3.287.343-1.416-1.445.993-.95 2.138-1.107 3.69-.508 2.528.976 2.683 1.663 1.237 5.468-1.5 3.947-11.423 14.465-13.645 14.465-.648 0-1.778.172-2.51.381-.733.21-2.12.177-3.082-.073zm-135.135-4.484c.785-5.122 2.259-8.09 6.366-12.824 1.893-2.181 2.77-2.746 2.328-1.5-.39 1.1-1.496 2.848-2.459 3.885-2.505 2.697-4.85 7.996-4.85 10.957 0 1.397-.46 2.825-1.024 3.173-.674.417-.797-.842-.36-3.691zm-3.97 1.708c-1.02-.773-1.674-1.945-1.454-2.605.23-.688 1.137-.076 2.128 1.436 1.967 3.003 1.9 3.119-.673 1.169zm-28.773-2.282c-1.243-1.586-1.208-1.621.378-.378.963.755 1.75 1.543 1.75 1.75 0 .823-.821.294-2.128-1.372zM104.5 175c.34-.55.816-1 1.059-1s.441.45.441 1-.477 1-1.059 1-.78-.45-.441-1zm14.5-1.385c0-.212 1.238-1.181 2.75-2.155l2.75-1.77-1.905 2.155c-1.686 1.907-3.595 2.847-3.595 1.77zm-1.224-5.115c3.016-4.017 7.224-8.262 7.224-7.289 0 .287-2.301 2.944-5.114 5.905-4.038 4.252-4.482 4.543-2.11 1.384zm-1.329-4.904c4.446-4.968 6.203-7.598 5.34-7.991-.708-.323-.334-.354.831-.07 2.284.556 5.648-3.274 5.035-5.733-.179-.716-.133-.955.101-.532.602 1.089 3.5-3 5.709-8.055 1.204-2.757 5.503-7.782 12.058-14.095 13.154-12.67 19.816-15.763 36.963-17.16 6.24-.509 12.48-1.442 13.865-2.073l2.52-1.149-3.934-5.326c-5.157-6.98-5.005-8.08.32-2.319 2.334 2.526 5.033 4.875 5.995 5.219 2.777.992 2.061 2.489-2.241 4.683-2.927 1.493-7.127 2.255-15.75 2.856-10.692.745-12.481 1.165-19.718 4.63-6.145 2.94-9.826 5.656-16.145 11.914-11.259 11.147-13.372 14.513-13.496 21.495-.054 3.085-.477 6.735-.94 8.11-.53 1.582-.63.205-.27-3.75.631-6.94-.448-8.065-2.88-3-1.521 3.17-10.973 14.504-15.01 18-1.112.962-2.687 1.75-3.5 1.75-.843 0 1.375-3.19 5.147-7.404zM94.638 168.5c.317-.825.753-1.5.969-1.5.216 0 .393.675.393 1.5s-.436 1.5-.969 1.5c-.532 0-.71-.675-.393-1.5zm4.022.242c.281-.456-.075-1.597-.794-2.536-.718-.938-.082-.615 1.414.718 1.496 1.334 2.72 2.475 2.72 2.536 0 .061-.867.111-1.927.111s-1.695-.373-1.413-.83zm-24.483-3.83c-.723-1.159-1.124-2.299-.889-2.534.694-.693 2.932 2.461 2.553 3.598-.191.574-.94.095-1.664-1.064zM202 166c1.939-1.253 3-1.253 3 0 0 .55-1.012.993-2.25.985-1.82-.013-1.963-.201-.75-.985zm-114.5-2c-.34-.55-.168-1 .382-1s1.278.45 1.618 1c.34.55.168 1-.382 1s-1.278-.45-1.618-1zm1.885-2.232c-1.587-1.227-3.035-2.577-3.218-3-.184-.422-.762-.768-1.286-.768-.55 0-.48.88.165 2.086.614 1.147.891 2.31.616 2.585-.275.275-1.028-.487-1.674-1.693-2.596-4.85 3.612-4.26 7.353.699 2.194 2.909 1.715 2.931-1.956.091zm5.856-.171c-1.792-1.268-8.41-7.49-14.707-13.828-6.296-6.337-12.142-11.788-12.99-12.114-1.684-.646-2.209-6.655-.581-6.655.53 0 2.737-2.613 4.906-5.807 2.168-3.193 5.557-6.906 7.53-8.25 1.973-1.343 3.59-2.715 3.594-3.047.009-.762 3.653-4.566 7.81-8.154 1.759-1.516 3.197-2.36 3.197-1.872 0 .487-.696 1.463-1.547 2.17-1.236 1.025-1.287 1.45-.25 2.106 1 .634.94.827-.262.839-.858.008-3.67 2.46-6.25 5.447-2.579 2.988-5.477 5.69-6.44 6.005-1.972.644-9.74 11.563-8.225 11.563.536 0 .974.675.974 1.5s-.675 1.5-1.5 1.5-1.507-.787-1.515-1.75c-.013-1.464-.167-1.51-.943-.284-1.123 1.775.68 4.355 2.543 3.64.695-.267 2.054.725 3.02 2.204 2.562 3.925 21.416 22.116 24.7 23.832 2.756 1.44 2.926 1.36 9.75-4.69 3.82-3.387 6.945-6.483 6.945-6.88 0-.396 2.475-3.579 5.5-7.072s5.487-7.285 5.47-8.426c-.027-1.967-3.915-6.908-7.14-9.074-5.674-3.812-11.682-8.377-13.816-10.5-1.383-1.375-3.786-3.157-5.341-3.96-2.858-1.476-5.296-4.75-4.288-5.759.301-.3 2.117.75 4.036 2.336 1.918 1.586 5.806 4.683 8.638 6.883 2.833 2.2 6.625 5.238 8.428 6.75 1.802 1.513 3.692 2.75 4.199 2.75.507 0 2.36 1.484 4.118 3.298 2.45 2.527 3.196 4.18 3.196 7.078 0 4.142-3.446 8.714-17.573 23.314-7.858 8.122-9.768 8.739-15.186 4.907zM75 161c-.901-.582-1.025-.975-.309-.985.655-.008 1.47.435 1.809.985.767 1.242.421 1.242-1.5 0zm52.28-3.573c.873-1.69 2.362-3.715 3.309-4.5 1.618-1.343 1.626-1.245.131 1.646-.873 1.69-2.362 3.715-3.309 4.5-1.618 1.343-1.626 1.245-.131-1.646zm-23.73-.692c1.072-1.47 2.4-2.693 2.95-2.719.55-.026.325-.483-.5-1.016-1.293-.835-1.266-.971.191-.985 3.153-.028 2.803 1.752-.901 4.577l-3.69 2.815zm-39.091-1.802c-1.076-1.741.15-2.11 1.52-.457.79.95.866 1.524.202 1.524-.584 0-1.36-.48-1.722-1.067zm4.84-2.159c-2.269-2.929-2.409-4.116-.242-2.052 1.282 1.222 2.084 2.47 1.78 2.774-.304.304-.996-.021-1.539-.722zM117.5 153c.34-.55 1.068-1 1.618-1s.722.45.382 1c-.34.55-1.068 1-1.618 1s-.722-.45-.382-1zm102.21-3.148c6.042-6.612 8.659-8.852 10.339-8.852.863 0 2.442-.66 3.51-1.468 2.914-2.205 4.3-1.765 1.58.501-1.298 1.082-3.16 1.967-4.139 1.967-.978 0-4.39 2.7-7.582 6-6.527 6.748-9.572 8.269-3.708 1.852zm-108.71.51c0-1.022 6.226-8.469 6.692-8.003.652.652-3.96 7.506-5.442 8.088-.688.27-1.25.232-1.25-.084zm-6.115-4.886C102.365 142.742 92.56 136 91.103 136c-.472 0-1.399-.651-2.06-1.447-.84-1.013.298-.814 3.797.664 5.002 2.113 16.094 11.182 15.007 12.269-.317.317-1.65-.587-2.962-2.01zM121.5 138c.34-.55.816-1 1.059-1s.441.45.441 1-.477 1-1.059 1-.78-.45-.441-1zm109.5-3.965c0-.53 1.012-1.496 2.25-2.145 2.238-1.175 2.24-1.17.345.964-2.116 2.384-2.595 2.602-2.595 1.181zm-145-2.81C86 130.262 96.582 119 97.487 119c.768 0-1.952 3.559-6.948 9.088-3.525 3.902-4.539 4.603-4.539 3.137ZM120.5 129c-.34-.55-.168-1 .382-1s1.278.45 1.618 1c.34.55.168 1-.382 1s-1.278-.45-1.618-1zm13.345-2.567c-2.39-1.961-7.578-6.799-11.528-10.75-3.951-3.95-8.564-8.392-10.25-9.87-2.146-1.879-3.067-3.588-3.067-5.69 0-1.653-.45-3.283-1-3.623-.55-.34-1-.115-1 .5s-.45.84-1 .5c-1.84-1.137-1.027-2.327 1.407-2.06 1.706.188 2.718-.42 3.478-2.088.863-1.892.783-2.352-.406-2.352-.814 0-1.479-.45-1.479-1 0-1.369 3.743-1.271 4.203.11.222.664.958.386 1.834-.692.881-1.086.966-1.503.213-1.05-1.5.9-1.54.527-.3-2.736.674-1.774.602-2.64-.25-2.986-.66-.269-.413-.524.55-.567.963-.043 1.75-.56 1.75-1.146 0-.646-.89-.794-2.25-.376-3.04.934-3.067.983-1.818 3.315.897 1.677.744 2.231-.854 3.086-2.895 1.55-3.59 1.265-1.784-.73 1.062-1.173 1.303-2.262.713-3.217-1.972-3.19 3.304-5.116 8.477-3.095 1.934.755 1.928.81-.25 2.17-1.229.767-2.234 1.996-2.234 2.731 0 .735 1.204-.16 2.675-1.99C128.477 71.879 134.72 67.12 136.5 70c.34.55.08 1-.579 1C132.401 71 111 95.763 111 99.836c0 1.172 1.635 3.57 3.674 5.388 2.02 1.802 7.642 7.101 12.492 11.776 4.85 4.675 9.697 8.895 10.77 9.377 1.524.686 2.887.074 6.256-2.81 2.37-2.028 4.308-4.11 4.308-4.627 0-.517.39-.888.865-.825.475.063 4.848-3.85 9.718-8.698 4.87-4.847 9.139-8.528 9.487-8.18.908.908-3.758 6.725-9.837 12.265a882.666 882.666 0 0 0-11.396 10.633c-3.39 3.226-6.835 5.865-7.656 5.865-.82 0-3.447-1.605-5.836-3.567zm-88.973.817c-1.243-1.586-1.208-1.621.378-.378 1.666 1.307 2.195 2.128 1.372 2.128-.207 0-.995-.787-1.75-1.75zm69.516-2.35c-2.139-1.704-5.576-3.963-7.638-5.02-2.063-1.056-3.75-2.394-3.75-2.973 0-.579 1.186-.12 2.635 1.02 1.449 1.14 3.362 2.09 4.25 2.109 1.665.037 5.66 3.132 8.02 6.214 1.967 2.569.868 2.147-3.518-1.35zm-63.824.393c-.542-1.425-.428-1.54.56-.56.684.679.99 1.486.683 1.793-.308.308-.867-.247-1.243-1.233zm217.889-2.139c2.174-2.285 4.108-4.154 4.297-4.154.84 0-3.382 4.79-5.693 6.46-1.507 1.09-.934.142 1.396-2.306zm-228.816-2.243c-2.555-2.248-4.39-4.5-4.08-5.003.311-.504 1.72.455 3.129 2.13 1.41 1.676 2.784 2.826 3.054 2.556s-.899-2.177-2.597-4.237c-3.85-4.67-3.453-5.383.788-1.421 1.9 1.774 3.077 3.762 2.888 4.876-.175 1.034.299 2.625 1.054 3.534 2.347 2.829.606 1.828-4.236-2.435zm95.287 1.453c-2.163-2.352-2.2-2.519-.342-1.554 2.487 1.29 5.057 4.19 3.715 4.19-.522 0-2.04-1.186-3.373-2.636zm-74.424-.247c-3.314-2.072-3.448-2.201-15.38-14.782C33.957 95.57 34 95.621 34 93.38c0-2.552 22.385-24.493 26.868-26.336 2.606-1.071 3.738-1.12 5-.212.898.645 2.532 1.574 3.632 2.064s5.629 4.517 10.064 8.948c8.853 8.844 13.97 16.896 13.053 20.544-1.06 4.227-24.748 25.626-28.347 25.608-.424-.002-2.12-.848-3.77-1.88zm8-2.991C74.104 115.638 90 99.052 90 96.693c0-3.13-6.224-11.998-12.863-18.326-5.427-5.174-8.843-7.23-6.01-3.617 1.243 1.584 1.208 1.62-.366.387-.956-.75-1.514-1.728-1.238-2.174.275-.445-.891-1.801-2.592-3.012-2.783-1.982-3.36-2.065-5.762-.827-1.468.757-7.884 6.6-14.258 12.985L35.322 93.72l4.488 5.208c3.359 3.899 4.712 4.878 5.38 3.891.696-1.027.829-.978.602.223-.355 1.876 15.875 17.96 18.117 17.955.875-.002 2.941-.844 4.591-1.87zm-3.337-1.724c-1.19-.834-2.163-2.01-2.163-2.614 0-.604.872-.31 1.937.655 1.065.964 2.415 1.457 3 1.096s1.063-.207 1.063.343c0 1.83-1.648 2.053-3.837.52zM73 111.557c0-1.422 3.64-4.557 5.29-4.557.466 0-.115 1.35-1.29 3-2.295 3.224-4 3.887-4 1.557zm7.959-9.365c1.243-1.819 2.524-3.043 2.847-2.72.323.324-.693 1.812-2.26 3.308L78.7 105.5ZM84.5 94c-.34-.55-.141-1 .441-1S86 93.45 86 94s-.198 1-.441 1-.72-.45-1.059-1zm-6.25-8.989c-1.787-1.09-3.25-2.198-3.25-2.463 0-.264 1.575.449 3.5 1.585 1.925 1.135 3.5 2.245 3.5 2.466 0 .64-.316.506-3.75-1.588zm-4.809-6.48c-1.067-.807-1.434-1.482-.813-1.5.62-.017 1.687.644 2.372 1.469 1.58 1.905.935 1.918-1.559.032zM59 73.182c0-1.208 1.897-2.617 2.59-1.924.252.252-.228 1.027-1.066 1.723-.95.789-1.524.865-1.524.201Zm39 43.941c0-.482.675-1.437 1.5-2.122 1.628-1.351 1.832-1.028.893 1.418-.643 1.675-2.393 2.19-2.393.704zm26.476-4.395c-7.974-6.876-12.305-11.685-12.056-13.386.223-1.514.949-1.767 2.855-.995.95.385.944.514-.025.575-.688.043-1.25.556-1.25 1.138 0 .582.445.784.989.448.543-.336.763-.023.487.695-.44 1.146 5.738 7.367 13.524 13.619 1.375 1.104 2.264 2.244 1.976 2.533-.287.29-3.212-1.793-6.5-4.627zM150 114.069c0-1.16 4.002-5.069 5.189-5.069 1.677 0 .71 1.699-2.189 3.842-1.65 1.22-3 1.772-3 1.227zm6-7.069c0-.55.45-1 1-1s1 .45 1 1-.45 1-1 1-1-.45-1-1zm114.053-2.655c-1.83-2.104-2.064-3.025-1.233-4.848.731-1.606.689-2.616-.147-3.521-.904-.978-.886-1.107.077-.564 1.784 1.008 1.6-2.372-.237-4.328-.818-.871-3.326-3.834-5.574-6.584a676.815 676.815 0 0 0-7.763-9.303c-2.022-2.366-4.082-5.179-4.579-6.25-.496-1.07-1.291-1.947-1.767-1.947-1.776 0-9.828-9.428-9.76-11.429.06-1.735.181-1.797.75-.385.374.927 3.38 4.556 6.68 8.064 12.777 13.582 24.994 28.018 24.857 29.374-.112 1.116 1.204 1.361 6.155 1.148 3.464-.15 6.089.066 5.834.478-.255.413-2.31.75-4.566.75-3.335 0-4.625.586-6.902 3.137l-2.8 3.136 2.21 1.724c1.217.947 3.66 1.93 5.428 2.185 2.716.39 3.947-.21 7.923-3.86 5.213-4.787 5.361-4.87 5.361-3.034 0 .709-1.913 2.868-4.25 4.798-3.359 2.773-5.213 3.545-8.844 3.683-3.822.145-4.975-.263-6.853-2.424zM121 103c0-.55.477-1 1.059-1s.78.45.441 1c-.34.55-.816 1-1.059 1s-.441-.45-.441-1zm-24.988-2.023C97.252 98.66 98 98.44 98 100.393c0 .766-.685 1.656-1.523 1.978-1.243.476-1.328.22-.465-1.394zm44.495 1.034c-.35-.566.051-.734.941-.393 1.732.665 2.05 1.382.611 1.382-.518 0-1.216-.445-1.552-.989zm118.993-.826c-3.295-1.034-4.318-1.686-3-1.912 2.418-.416 10.253 2.155 8.933 2.931-.513.302-3.183-.156-5.933-1.019zm-92.543-3.648C164.6 93.683 156.855 86.035 147.176 78c-4.97-4.125-9.067-7.838-9.106-8.25-.038-.412.785-.75 1.83-.75s4.724 2.925 8.176 6.5c3.451 3.575 6.722 6.5 7.268 6.5 1.603 0 12.647 12.288 13.3 14.797.835 3.213.04 3.563-1.687.74zM209.5 97c.34-.55.816-1 1.059-1s.441.45.441 1-.477 1-1.059 1-.78-.45-.441-1zm45.224.346c.916-.37.82-1.113-.385-2.952-1.937-2.956-.933-4.56 1.14-1.821 2.027 2.68 1.908 5.444-.229 5.348-1.002-.045-1.227-.29-.526-.575zm5.526-2.498c-2.337-1.64-4.25-3.643-4.25-4.454 0-1.098.318-1.193 1.25-.374.688.604 2.712 1.965 4.5 3.025 1.788 1.059 3.25 2.607 3.25 3.44 0 1.835.4 1.973-4.75-1.637zM19 91.918C19 88.502 25.351 79 27.634 79c.673 0 2.894-1.575 4.935-3.5C35.736 72.513 38 71.179 38 72.3c0 .164-3.149 2.922-6.998 6.128-7.485 6.235-11.385 11.41-10.446 13.858.32.831.1 1.809-.488 2.172-.672.416-1.068-.525-1.068-2.54Zm84.036 1.887c.845-.718 1.398-1.98 1.227-2.805-.17-.825.714-2.115 1.964-2.868 1.766-1.062 1.994-1.073 1.023-.05-.688.725-1.25 2.112-1.25 3.083 0 .97-1.012 2.255-2.25 2.855-1.896.919-2.008.885-.714-.215zm4.31-1.348c-.9-2.346.07-2.62 1.45-.412.773 1.238.84 1.955.181 1.955-.572 0-1.306-.694-1.632-1.543zm86.085-.38c.957-1.058 3.544-3.174 5.748-4.701 2.205-1.528 5.61-4.246 7.57-6.04 1.959-1.794 3.829-3.098 4.156-2.897.327.2 1.72-1.157 3.095-3.018 2.507-3.393 9.074-7.445 11.308-6.978 2.546.533 6.53 2.485 7.163 3.51.366.593 2.19 1.715 4.055 2.493 3.573 1.494 11.472 8.813 13.403 12.422 2.061 3.851-.702 2.276-3.956-2.256-1.852-2.579-4.816-5.14-7.186-6.208-2.22-1-5.616-3.076-7.548-4.612-5.128-4.075-10.185-3.87-13.916.562-1.553 1.845-4.167 4.207-5.81 5.25-1.643 1.043-4.735 3.584-6.87 5.646-2.137 2.063-4.426 3.75-5.09 3.75-.662 0-2.261 1.125-3.553 2.5-2.726 2.901-5.17 3.45-2.57.577zm23.684.083c2.64-2.037 8.94-4.438 9.686-3.692.262.262-.824.966-2.412 1.565-1.59.6-4.196 1.737-5.793 2.528-3.9 1.933-4.349 1.812-1.48-.401zM178.727 91c-1.398-1.1-2.954-2-3.457-2C173.804 89 159 74.816 159 73.411c0-.7-1.35-2.236-3-3.411-1.89-1.346-3-3.014-3-4.51 0-1.304-.45-2.65-1-2.99-2.112-1.305-.805-4.254 4.33-9.773 2.932-3.15 5.6-5.727 5.929-5.727.329 0 2.768-2.08 5.42-4.622 9.095-8.719 16.83-12.6 18.791-9.426.324.523 4.963 4.236 10.31 8.25 12.233 9.185 18.18 15.388 18.203 18.987.02 3.139-3.912 7.946-16.686 20.402C191.095 87.614 183.88 93 181.675 93c-.223 0-1.55-.9-2.948-2zm17.653-11.758c14.883-14.422 16.64-16.53 16.115-19.333-.248-1.325-3.321-5.109-6.829-8.409-5.373-5.055-9.458-8.317-21.235-16.954-1.895-1.39-5.793.955-13.397 8.057-3.594 3.356-6.993 6.281-7.553 6.5-.561.218-3.113 2.656-5.673 5.418-4.621 4.986-4.645 5.048-3.542 9.182.68 2.545 1.81 4.345 2.91 4.633.99.259 2.204 1.533 2.698 2.833 1.122 2.95 14.54 16.128 16.753 16.453.9.131 2.138.75 2.754 1.375 2.49 2.528 6.988-.053 17-9.755zm-18.925 6.303C175.32 83.411 174.22 81 175.38 81c.21 0 1.583 1.575 3.051 3.5 3.093 4.055 2.58 4.603-.977 1.045zM189 83.622c0-.207.787-.995 1.75-1.75 1.586-1.243 1.621-1.208.378.378-1.307 1.666-2.128 2.195-2.128 1.372zm4-4.377c0-.55.675-1.56 1.5-2.245.837-.694 1.5-.803 1.5-.245 0 .55-.675 1.56-1.5 2.245-.837.694-1.5.803-1.5.245zM171.5 44c.34-.55.816-1 1.059-1s.441.45.441 1-.477 1-1.059 1-.78-.45-.441-1zm64.25 47.284c-1.512-.23-2.75-1.027-2.75-1.774 0-1.111.543-1.086 3 .14 1.65.823 3 1.689 3 1.923 0 .235-.113.36-.25.277-.138-.082-1.488-.337-3-.566zM9.5 89.792c-2.098-1.203-4.571-4.054-4.007-4.619.74-.74 5.397-.83 5.21-.1-.112.432.697 1.5 1.797 2.372 1.925 1.526 1.888 1.565-1 1.047-2.634-.472-2.726-.417-.75.453 1.238.545 2.25 1.23 2.25 1.523 0 .83-1.316.577-3.5-.676zm219.25-.454c.688-.278 1.813-.278 2.5 0 .688.277.125.504-1.25.504s-1.938-.227-1.25-.504zM94.852 85.243c-7.577-7.773-11.72-11.874-16.216-16.048C76.086 66.827 74 64.45 74 63.912 74 62.805 91.079 46 92.203 46c.4 0 2.856-1.35 5.458-3 2.602-1.65 6-3 7.553-3 4.206 0 11.822 4.423 15.786 9.167 1.925 2.304 4.737 5.475 6.25 7.046 1.512 1.57 2.75 3.277 2.75 3.792 0 2.043-28.073 29-30.188 28.988-.722-.004-2.954-1.692-4.96-3.75zM104 82.91c7.015-6.128 23-22.24 23-23.183 0-.532-3.628-4.513-8.062-8.847-7.48-7.311-8.364-7.88-12.25-7.87-5.087.01-11.835 3.755-19.688 10.924-3.025 2.761-5.786 5.031-6.135 5.043-.35.013-1.394 1.182-2.323 2.599-1.666 2.543-1.64 2.615 2.135 5.744 4.63 3.838 9.574 8.761 14.5 14.44 2.022 2.332 4.047 4.233 4.5 4.224.453-.009 2.398-1.392 4.323-3.074zm-3.696-6.644c-1.758-2.039-2.968-3.935-2.69-4.213s1.941 1.189 3.696 3.26l3.19 3.766 7.887-7.54c10.53-10.065 12.01-9.685 1.795.461-4.43 4.4-8.645 7.994-9.368 7.987-.723-.008-2.752-1.682-4.51-3.72zM92.5 68c-1.58-1.65-2.41-3-1.842-3 1.027 0 3.393 2.367 4.749 4.75 1.166 2.05.144 1.435-2.907-1.75zm146 20c-.34-.55-.168-1 .382-1s1.278.45 1.618 1c.34.55.168 1-.382 1s-1.278-.45-1.618-1zm-18-1c.34-.55 1.068-1 1.618-1s.722.45.382 1c-.34.55-1.068 1-1.618 1s-.722-.45-.382-1zM11.24 83.014c-1.757-2.814-1.705-2.9 3.01-5.04 4.552-2.067 9.559-2.789 6.75-.974-.825.533-2.288.976-3.25.985-2.439.021-5.826 3.654-5.12 5.492.821 2.14.083 1.894-1.39-.463zM249.5 84c-.34-.55.084-1 .941-1s1.559.45 1.559 1-.423 1-.941 1-1.22-.45-1.559-1zM6.192 82.14c-.857-.544-1.088-1.831-.67-3.735.488-2.213.386-2.548-.426-1.405-.586.825-1.072 1.126-1.08.67-.023-1.21 18.124-21.863 18.702-21.286.268.269-2.934 4.333-7.115 9.033C8.247 73.684 7.349 75.514 7.83 81.25c.167 1.996.134 2.014-1.638.89zm265.372-1.847c-.542-1.425-.428-1.54.56-.56.684.679.99 1.486.683 1.793-.308.308-.867-.247-1.243-1.233zm-152.378-2.348c-2.622-1.052-2.061-2.945.873-2.945 1.274 0 1.941.687 1.941 2 0 1.1-.113 1.971-.25 1.937-.138-.035-1.291-.481-2.564-.992zm124.198-1.695a528.866 528.866 0 0 0-4.433-4.764c-2.27-2.398-3.76-8.486-2.076-8.486.619 0 1.125 1.317 1.125 2.927 0 1.908.845 3.593 2.427 4.837 3.567 2.806 7.93 8.236 6.616 8.236-.623 0-2.27-1.238-3.66-2.75zm-12.979-.5L228.5 73.5l2.25 1.905c2.114 1.79 2.705 2.595 1.905 2.595-.19 0-1.202-1.012-2.25-2.25zM23 76.57c0-.69 9.202-6.702 9.62-6.284.55.551-7.307 6.714-8.561 6.714-.583 0-1.059-.193-1.059-.43Zm24.32-12.656c1.806-2.756 15.263-11.22 16.946-10.659.59.197-1.142 1.636-3.847 3.198-2.706 1.562-7.125 4.438-9.82 6.39-4.313 3.123-4.707 3.252-3.278 1.07zm178.21.135c-.863-1.397.237-3.049 2.029-3.049 1.836 0 1.85 1.415.03 2.926-.965.8-1.616.84-2.059.123zM45.5 58c.34-.55.816-1 1.059-1s.441.45.441 1-.477 1-1.059 1-.78-.45-.441-1zm187 0c-.34-.55-.141-1 .441-1s1.059.45 1.059 1-.198 1-.441 1-.72-.45-1.059-1zm-89.486-2.172c-2.497-.942-12.918-9.387-16.357-13.255-1.76-1.98-1.814-1.984-1.197-.103.355 1.083.284 1.608-.157 1.167-.897-.897-1.211-5.698-.337-5.158.306.189 1.425-.291 2.486-1.068 1.072-.784 1.37-1.411.668-1.411-.912 0-.845-.417.237-1.5.825-.825 1.805-1.5 2.179-1.5.373 0 .419.675.102 1.5-.781 2.036 1.26 1.91 7.506-.463 8.171-3.105 30.142-2.807 32.841.445 2.086 2.514-.406 4.899-17.485 16.739-6.886 4.773-8.346 5.415-10.486 4.607zm11.747-8.446c11.352-7.369 15.593-11.035 13.97-12.078C166.923 34.142 143 33.609 143 34.73c0 .514-3.382 1.777-7.515 2.807-4.134 1.029-7.391 2.245-7.239 2.701.616 1.847 15.344 13.671 16.515 13.26.694-.244 5.194-2.996 10-6.116zm-5.228.67c-.358-.578.05-1.052.908-1.052.857 0 1.562-.338 1.566-.75.01-1.187 6.784-5.486 8.004-5.08.605.202-1.063 1.934-3.706 3.848-5.944 4.307-5.977 4.322-6.772 3.035zm81.134 6.281c-.367-.366-.667-1.131-.667-1.7 0-.626.466-.567 1.183.15.651.651.951 1.416.667 1.7-.284.285-.817.217-1.183-.15zm2.866-1.89c-1.953-1.81-3.323-2.327-4.868-1.837-1.904.605-1.994.495-.785-.962.75-.904 1.872-1.626 2.492-1.603 1.818.065 7.883 5.684 6.835 6.331-.525.325-2.179-.543-3.674-1.929zm-113.026-7.432c-.35-.566.051-.734.941-.393 1.732.665 2.05 1.382.611 1.382-.518 0-1.216-.445-1.552-.989zm94.145-3.626c-2.666-1.388-4.623-2.747-4.35-3.021.54-.539 10.698 4.355 10.698 5.153 0 .897-1.481.4-6.348-2.132zM108.5 37c-1.928-.829-1.921-.862.191-.93 1.205-.038 2.47.38 2.809.93.731 1.183-.248 1.183-3 0zM89 35c0-.55.477-1 1.059-1s.78.45.441 1c-.34.55-.816 1-1.059 1S89 35.55 89 35Zm9.5-1c.34-.55 1.068-1 1.618-1s.722.45.382 1c-.34.55-1.068 1-1.618 1s-.722-.45-.382-1zm106 0c-.34-.55-.168-1 .382-1s1.278.45 1.618 1c.34.55.168 1-.382 1s-1.278-.45-1.618-1zm-4.5-.72c-3.667-.659-4.596-2.021-1.02-1.496 1.675.246 3.29.845 3.591 1.331.301.487.408.824.238.749-.17-.075-1.434-.338-2.809-.585zM99.017 30.327c.72-.353.648-1.03-.225-2.088-1.078-1.306-1.044-1.483.208-1.07 1.828.605 1.99 3.064.225 3.422-.701.142-.795.023-.208-.264zm5.867-1.047c1.311-.937 3.058-1.802 3.88-1.923 2.103-.308.304 1.038-3.264 2.444l-3 1.182zM94 29.622c0-.207.685-.946 1.523-1.641 1.273-1.057 1.42-.995.893.378C95.878 29.76 94 30.743 94 29.622Zm20.75-3.284c.688-.278 1.813-.278 2.5 0 .688.277.125.504-1.25.504s-1.938-.227-1.25-.504zm7.5-1.027c.963-.252 2.538-.252 3.5 0 .963.251.175.457-1.75.457s-2.712-.206-1.75-.457zm48.25-3.788c-4.075-1.048-4.445-1.304-2-1.385 1.65-.055 5.25.527 8 1.292 3.942 1.097 4.365 1.39 2 1.385-1.65-.004-5.25-.585-8-1.292zm42.36-5.572-2.36-2.05 3.25 1.575c3.198 1.55 4.109 2.524 2.36 2.524-.488 0-1.95-.922-3.25-2.05zM217 16c-1.925-1.052-6.341-2.88-9.814-4.06-8.266-2.81-7.296-3.673 1.184-1.054 7.168 2.214 12.154 4.533 13.126 6.106.92 1.488-.56 1.162-4.496-.991zM99 9.608c0-.216.698-.661 1.552-.989.89-.341 1.291-.173.94.393-.586.95-2.492 1.406-2.492.596Zm70.605-2.624c-10.165-2.993-13.82-4.323-9.855-3.588 1.238.23 2.25.038 2.25-.425 0-.464-1.463-1.025-3.25-1.247-1.787-.221.125-.47 4.25-.551 4.125-.082 9.975.516 13 1.328 3.025.812 7.075 1.507 9 1.545 4.153.08 10.216 2.044 10.674 3.455.178.55-1.813 1.115-4.425 1.256-2.612.141-6.324.455-8.249.699-2.127.269-7.382-.701-13.395-2.472zm18.312-.625c.229-.197-1.571-.378-4-.402-2.43-.024-6.217-.427-8.417-.897-9.407-2.007-10.472-1.896-3 .315 6.939 2.052 13.675 2.482 15.417.984zm-77.724-.788c7.437-2.217 25.606-5.105 26.5-4.211.24.241-2.854.928-6.878 1.527-4.023.599-11.14 2.006-15.815 3.127-11.246 2.698-13.47 2.439-3.807-.443z"
       style="fill:#000;stroke:#000000;stroke-opacity:1;stroke-width:2.88981556;stroke-dasharray:none"
       transform="matrix(2.5855 0 0 2.60518 167.826 293.143)"
       id="path36" /></g><defs
     id="defs73"><clipPath
       id="a"><path
         d="M680 521h897v736H680Zm0 0"
         id="path40" /></clipPath><clipPath
       id="b"><path
         d="m713.465 485.262 896.55 73.984-73.492 890.574-896.55-73.984zm0 0"
         id="path43" /></clipPath><clipPath
       id="c"><path
         d="m713.465 485.262 896.55 73.984-73.492 890.574-896.55-73.984zm0 0"
         id="path46" /></clipPath><clipPath
       id="d"><path
         d="M1360 1252h122v100h-122zm0 0"
         id="path49" /></clipPath><clipPath
       id="e"><path
         d="m713.465 485.262 896.55 73.984-73.492 890.574-896.55-73.984zm0 0"
         id="path52" /></clipPath><clipPath
       id="f"><path
         d="m713.465 485.262 896.55 73.984-73.492 890.574-896.55-73.984zm0 0"
         id="path55" /></clipPath><clipPath
       id="g"><path
         d="M1412 1386h62v57h-62zm0 0"
         id="path58" /></clipPath><clipPath
       id="h"><path
         d="m713.465 485.262 896.55 73.984-73.492 890.574-896.55-73.984zm0 0"
         id="path61" /></clipPath><clipPath
       id="i"><path
         d="m713.465 485.262 896.55 73.984-73.492 890.574-896.55-73.984zm0 0"
         id="path64" /></clipPath><radialGradient
       xlink:href="#k"
       id="j"
       cx="198.107"
       cy="174.954"
       r="95.585"
       fx="198.107"
       fy="174.954"
       gradientTransform="matrix(1 0 0 .9019 0 17.162)"
       gradientUnits="userSpaceOnUse" /><linearGradient
       id="k"><stop
         offset="0"
         style="stop-color:#bb4041;stop-opacity:1"
         id="stop68" /><stop
         offset="1"
         style="stop-color:#d12a2b;stop-opacity:1"
         id="stop70" /></linearGradient></defs></svg>
